<?xml version="1.0" encoding="UTF-8" standalone="no"?>
<!-- Created with Inkscape (http://www.inkscape.org/) -->

<svg
   xmlns:dc="http://purl.org/dc/elements/1.1/"
   xmlns:cc="http://creativecommons.org/ns#"
   xmlns:rdf="http://www.w3.org/1999/02/22-rdf-syntax-ns#"
   xmlns:svg="http://www.w3.org/2000/svg"
   xmlns="http://www.w3.org/2000/svg"
   xmlns:sodipodi="http://sodipodi.sourceforge.net/DTD/sodipodi-0.dtd"
   xmlns:inkscape="http://www.inkscape.org/namespaces/inkscape"
   version="1.1"
   id="svg1958"
   width="1275"
   height="1196"
   viewBox="0 0 1275 1196"
   sodipodi:docname="bruiIconsol.svg"
   inkscape:version="0.92.4 (5da689c313, 2019-01-14)">
  <metadata
     id="metadata1964">
    <rdf:RDF>
      <cc:Work
         rdf:about="">
        <dc:format>image/svg+xml</dc:format>
        <dc:type
           rdf:resource="http://purl.org/dc/dcmitype/StillImage" />
        <dc:title></dc:title>
      </cc:Work>
    </rdf:RDF>
  </metadata>
  <defs
     id="defs1962" />
  <sodipodi:namedview
     pagecolor="#ffffff"
     bordercolor="#666666"
     borderopacity="1"
     objecttolerance="10"
     gridtolerance="10"
     guidetolerance="10"
     inkscape:pageopacity="0"
     inkscape:pageshadow="2"
     inkscape:window-width="1920"
     inkscape:window-height="1017"
     id="namedview1960"
     showgrid="false"
     inkscape:zoom="0.55811773"
     inkscape:cx="423.20988"
     inkscape:cy="580.67516"
     inkscape:window-x="-8"
     inkscape:window-y="-8"
     inkscape:window-maximized="1"
     inkscape:current-layer="svg1958" />
  <path
     style="fill:#ffffff"
     d="m 597.15607,1141.3696 c -76.27757,-2.0639 -120.21219,-5.9822 -150.513,-13.4234 C 359.68361,1106.5907 303.71071,1062.2498 237.6194,962.36065 191.40645,892.51524 117.62622,759.09759 103.82306,720.41514 88.666328,677.93938 81.945238,642.35196 81.904848,604.36061 c -0.0281,-26.40682 2.68349,-47.94692 9.3784,-74.5 9.761542,-38.71579 23.072322,-69.82388 54.341752,-127 43.88578,-80.2451 92.72238,-161.97911 113.77863,-190.42241 62.7954,-84.82559 130.40356,-126.341247 224.75244,-138.012107 80.93045,-10.01102 242.35321,-9.27661 328.5,1.49453 27.29503,3.41277 50.01942,8.52911 72.69555,16.36722 39.49727,13.652407 67.05764,31.991417 103.67524,68.986807 42.34904,42.78589 71.29704,84.07931 127.64844,182.08596 70.2346,122.15243 89.8042,168.49144 96.0765,227.5 2.0612,19.39151 1.4603,67.69922 -1.0324,83 -9.4813,58.19892 -33.9814,111.43727 -114.3587,248.5 -46.2253,78.82524 -67.5954,108.58709 -104.13272,145.02349 -38.6108,38.5042 -69.17374,58.1923 -112.57191,72.517 -35.21811,11.6247 -75.97908,17.6312 -138.5,20.4092 -32.67683,1.4519 -109.69535,2.0146 -145,1.0593 z m 66.5,-10.0067 c 96.93521,-2.4845 161.65589,-7.6836 192.27911,-15.4462 35.29773,-8.9475 72.14903,-27.7553 104.22089,-53.1912 10.82752,-8.5872 40.11003,-37.8385 50.91913,-50.8648 28.3497,-34.16485 58.6153,-80.69528 102.7711,-158.00009 62.3528,-109.16282 82.4165,-157.82344 89.4736,-217 1.5516,-13.01057 1.5073,-59.03833 -0.07,-72.5 -6.2028,-52.94772 -24.1842,-95.68754 -85.6358,-203.54723 C 1022.486,193.84408 971.74364,136.06105 893.457,105.553 841.20194,85.189373 776.73976,77.272293 663.15607,77.268033 c -74.68379,-0.003 -136.48655,3.15866 -180,9.20774 -91.88428,12.7734 -146.38194,46.072077 -207.66368,126.884837 -46.05384,60.7316 -98.82404,147.11401 -138.67216,227 -19.61496,39.32332 -29.0626,63.74701 -36.16795,93.5 -15.981472,66.92092 -9.662002,130.96708 20.12231,203.93434 10.46077,25.62736 51.24059,99.00394 103.00355,185.33794 22.01838,36.72386 32.23706,52.53436 45.43105,70.29156 61.86629,83.26345 127.6106,122.61735 224.44688,134.35195 32.83983,3.9795 99.66188,5.3892 170,3.5865 z M 635.48025,529.97326 c -6.11933,-1.98981 -10.66831,-5.0893 -15.7269,-10.71568 -6.15999,-6.85139 -8.90455,-14.29099 -9.00034,-24.39697 -0.10039,-10.59103 1.94393,-14.40659 13.93044,-26 12.96128,-12.53621 15.47262,-15.89499 15.47262,-20.69374 0,-3.65229 -0.28895,-4.04498 -4.25,-5.77577 -5.46986,-2.39007 -13.72411,-3.53123 -43.55669,-6.02175 -60.31588,-5.03537 -105.21917,-14.03322 -129.69331,-25.98832 -11.57966,-5.65642 -16.76531,-9.65998 -19.52902,-15.07731 -2.44829,-4.79903 -2.45482,-6.07437 -0.0553,-10.7779 4.33706,-8.50134 18.9272,-17.8004 37.90401,-24.15821 22.86002,-7.65881 88.69413,-17.50423 123.68028,-18.49625 l 16,-0.45367 -22,2.42597 c -85.25401,9.40107 -121.67063,22.3147 -116.55042,41.32971 3.99816,14.84802 36.90118,26.36084 90.55042,31.68374 85.34331,8.46749 187.00273,1.19264 224.32909,-16.0532 12.93715,-5.97733 17.17765,-10.45977 17.16432,-18.14364 -0.0158,-9.1131 -10.734,-16.7065 -34.05962,-24.12983 -18.26746,-5.81358 -58.38245,-12.80804 -84.70535,-14.76926 -17.01116,-1.26743 -8.64929,-1.601 11.44735,-0.45665 69.58519,3.96234 124.78569,17.38713 141.91151,34.51294 8.66077,8.66077 8.4278,14.74788 -0.88487,23.12077 -17.95383,16.14204 -65.33181,27.53254 -145.20243,34.90923 -32.368,2.98944 -45.5838,4.9006 -50.5,7.30288 -2.90603,1.42002 -3.55111,2.32044 -3.80115,5.30575 -0.24456,2.91971 0.43227,4.52335 3.60111,8.53223 2.14625,2.7152 6.20134,6.86163 9.01131,9.21427 11.54961,9.66988 19.09527,24.26856 17.65533,34.15801 -1.60247,11.00574 -10.69811,22.91378 -21.19668,27.75078 -6.7889,3.12783 -15.72181,3.8857 -21.94574,1.86187 z m -0.72044,-11.02239 c 1.40232,-3.6544 -8.22655,-14.51991 -13.18554,-14.87897 -2.61587,-0.1894 -2.89821,0.0771 -2.72528,2.57274 0.47366,6.83524 13.99661,17.29457 15.91082,12.30623 z M 585.42147,411.31165 c -37.48632,-2.51862 -72.90907,-18.23726 -68.31701,-30.31529 4.17002,-10.968 40.33917,-21.71575 88.05161,-26.16475 29.20902,-2.72363 35,-4.47553 35,-10.58827 0,-4.55366 -2.63644,-8.16768 -14.04528,-19.2532 -12.56039,-12.20443 -14.93074,-16.62032 -14.94495,-27.84202 -0.0128,-10.0827 2.72546,-17.52105 8.86689,-24.08673 7.14934,-7.64323 12.84024,-10.14785 23.12334,-10.17683 7.16095,-0.0202 9.4008,0.39825 14.21807,2.65611 7.20867,3.3787 14.58587,10.23043 18.35314,17.04587 2.45163,4.43528 2.91146,6.38736 2.89126,12.27407 -0.0354,10.30938 -3.33953,16.41613 -15.96143,29.5 -12.84065,13.31062 -14.50104,15.54109 -14.50104,19.47987 0,5.93877 4.32297,7.75769 22.5,9.46707 37.31935,3.50953 45.30382,4.43327 57.16881,6.61401 32.82835,6.03371 51.2474,15.98448 47.28675,25.54634 -1.78571,4.31109 -7.43881,8.78029 -16.44413,13.00033 -16.80643,7.87575 -33.84037,11.20109 -66.01143,12.88663 -21.50753,1.12684 -90.23199,1.09915 -107.2346,-0.0432 z m 99.99524,-12.42344 c 31.95533,-3.41313 52.50159,-9.06694 57.16975,-15.73168 2.29944,-3.2829 1.99344,-8.32315 -0.65511,-10.79065 -8.11469,-7.55999 -36.97414,-14.34117 -66.88115,-15.71525 -14.56143,-0.66903 -17.89413,-0.15029 -17.89413,2.78526 0,3.03849 6.70429,5.56822 24.9489,9.41395 16.45216,3.4679 21.30177,5.24211 22.99944,8.41425 1.43532,2.68191 -1.70355,6.31635 -7.66163,8.87127 -18.49225,7.92977 -66.95508,9.79009 -92.28671,3.54256 -7.70133,-1.89937 -21,-7.75975 -21,-9.25414 0,-3.32963 15.8082,-10.55153 27.52392,-12.57416 13.6815,-2.36201 21.47608,-5.08529 21.47608,-7.50334 0,-2.60142 -1.93171,-2.98773 -14.83179,-2.96615 -31.53401,0.0528 -68.56081,9.72792 -70.75987,18.48966 -2.68215,10.68652 30.39681,21.87417 73.59166,24.88947 10.67249,0.74502 50.67174,-0.41963 64.26064,-1.87105 z M 628.00229,284.76024 c 3.96607,-3.3948 7.15378,-8.00673 7.15378,-10.34997 0,-1.66276 -5.81024,-1.2201 -8.68183,0.66143 -3.34029,2.18865 -8.31817,9.0341 -8.31817,11.43895 0,3.21634 5.10368,2.30903 9.84622,-1.75041 z"
     id="path2511"
     inkscape:connector-curvature="0" />
</svg>
