<?xml version="1.0" encoding="UTF-8" standalone="no"?>
<svg
   xmlns:dc="http://purl.org/dc/elements/1.1/"
   xmlns:cc="http://creativecommons.org/ns#"
   xmlns:rdf="http://www.w3.org/1999/02/22-rdf-syntax-ns#"
   xmlns:svg="http://www.w3.org/2000/svg"
   xmlns="http://www.w3.org/2000/svg"
   viewBox="0 0 178 284"
   height="284"
   width="178"
   id="svg1384"
   version="1.1">
  <metadata
     id="metadata1390">
    <rdf:RDF>
      <cc:Work
         rdf:about="">
        <dc:format>image/svg+xml</dc:format>
        <dc:type
           rdf:resource="http://purl.org/dc/dcmitype/StillImage" />
        <dc:title></dc:title>
      </cc:Work>
    </rdf:RDF>
  </metadata>
  <defs
     id="defs1388" />
  <path
     id="path1947"
     d="m 51.656784,273.28375 c 1.5125,-0.22913 3.9875,-0.22913 5.5,0 1.5125,0.22912 0.275,0.41659 -2.75,0.41659 -3.025,0 -4.2625,-0.18747 -2.75,-0.41659 z m 29.83583,0.29709 c 0.7307,-0.73071 12.86986,-0.95848 13.57365,-0.25469 0.37062,0.37062 -2.62615,0.67385 -6.65948,0.67385 -4.03334,0 -7.14471,-0.18862 -6.91417,-0.41916 z m 83.172226,-2.4127 c 1.51693,-1.00028 2.41693,-2.19446 2,-2.65374 -0.41693,-0.45928 -0.24271,-0.54049 0.38716,-0.18047 1.44572,0.82635 2.35478,-1.48957 2.35478,-5.99905 0,-4.26952 -2.16283,-4.09718 -2.74076,0.21839 -0.46006,3.43536 -2.89414,6.4596 -5.16423,6.41632 -1.23409,-0.0235 -1.14245,-0.28704 0.40499,-1.16454 1.1,-0.62377 2.32624,-1.62258 2.72499,-2.21959 0.39874,-0.597 0.73973,-48.97645 0.75776,-107.50989 0.018,-58.533445 0.25429,-106.645941 0.52502,-106.91667 0.27072,-0.270728 0.49223,39.407765 0.49223,88.17443 0,70.2585 0.25951,88.66985 1.25,88.68198 0.89496,0.011 0.92806,0.22399 0.11651,0.75 -1.54112,0.99891 -1.59799,26.47852 -0.058,25.96517 1.89989,-0.6333 2.80601,-6.01487 2.26975,-13.48048 -0.35237,-4.90547 -0.16646,-7.25 0.57487,-7.25 1.61554,0 0.46496,32.03733 -1.24914,34.78206 -0.71294,1.14159 -2.35418,2.55764 -3.6472,3.14678 -3.58932,1.6354 -4.07339,1.26672 -0.99878,-0.7607 z M 12.386724,270.47583 c -1.93237,-2.32837 -0.55356,-2.76715 1.51451,-0.48196 0.99854,1.10337 1.35088,2.00613 0.78298,2.00613 -0.5679,0 -1.60177,-0.68587 -2.29749,-1.52417 z m 78.02006,-0.42906 2.5,-0.75388 -3,-0.49661 c -2.8281,-0.46816 -2.7885,-0.5052 0.69098,-0.64645 4.20448,-0.17067 5.91381,1.32065 2.54777,2.22283 -3.23211,0.86627 -5.71318,0.57104 -2.73875,-0.32589 z m -74.33208,-2.86121 C 14.329364,265.25697 13.018694,252 14.573374,252 c 0.45837,0 0.83341,3.00207 0.83341,6.67126 0,4.80435 0.46313,7.18302 1.65498,8.5 0.91025,1.00581 1.42999,1.82874 1.15499,1.82874 -0.275,0 -1.23892,-0.8165 -2.14205,-1.81444 z m -5.89477,-5.19457 c -0.2647104,-2.75496 -0.2094704,-11.64246 0.12277,-19.75 L 10.906784,227.5 11.564824,241 c 0.74143,15.21082 0.7185,14.25183 0.50221,21 -0.20642,6.44024 -1.26789,6.43517 -1.8871,-0.009 z m 77.82015,-12.88894 c -1.81896,-0.70419 -1.91304,-2.27659 -2.0444,-34.1701 -0.10096,-24.51385 -0.46867,-34.03215 -1.37848,-35.68195 -0.87389,-1.58468 -0.9409,-2.81034 -0.22662,-4.14499 0.74878,-1.39911 0.63793,-2.20725 -0.42362,-3.08826 -1.55963,-1.29438 -1.41367,-1.65703 -3.41445,8.48325 -1.40693,7.13056 -4.32657,13.20383 -10.45166,21.74093 -2.93939,4.09689 -5.65774,7.95598 -6.04079,8.57577 -0.41355,0.66913 1.32085,2.57616 4.26975,4.69474 8.13201,5.84227 11.49046,14.2084 7.48187,18.63785 -0.89931,0.99372 -1.76669,3.00546 -1.92751,4.47053 -0.43825,3.99228 -2.91829,5.88028 -7.72311,5.87943 -3.29641,-5.8e-4 -5.13576,-0.74153 -8.44513,-3.40197 -2.32697,-1.87067 -4.52277,-4.32099 -4.87956,-5.44514 -1.16152,-3.65963 -0.58496,-18.47459 0.83179,-21.37313 1.20466,-2.46462 1.1306,-3.17052 -0.65465,-6.23976 -1.53592,-2.64058 -2.0976,-5.72145 -2.37005,-13 -0.51648,-13.79751 1.90701,-21.71221 9.02614,-29.47781 0.97745,-1.06621 1.77718,-2.94191 1.77718,-4.16821 0,-3.47644 1.05422,-5.39323 2.96625,-5.39323 0.96376,0 3.72811,-1.56379 6.14302,-3.47508 2.4149,-1.9113 5.74073,-3.76783 7.39073,-4.12564 3.79383,-0.82269 4.45572,-1.89728 3.77029,-6.12111 -0.43205,-2.6624 -0.11647,-3.69761 1.46488,-4.80523 1.10856,-0.77647 2.25452,-2.32552 2.54658,-3.44235 0.43097,-1.64804 0.0306,-2.05166 -2.12537,-2.14243 -1.63817,-0.069 -0.79753,-0.46756 2.19313,-1.03986 3.44368,-0.65899 5.2555,-0.59107 6.25,0.23429 1.10278,0.91522 1.40049,0.81741 1.40049,-0.46015 0,-0.89234 0.675,-1.62244 1.5,-1.62244 0.825,0 1.5,0.45 1.5,1 0,1.25484 6.679366,1.3278 7.449706,0.0814 0.69578,-1.12579 -4.264616,-2.30018 -8.690426,-2.05747 -5.18265,0.28421 -6.45683,0.0709 -5.02175,-0.84052 0.68064,-0.4323 4.95564,-0.3566 9.5,0.16822 12.922246,1.49234 17.262466,1.40394 17.262466,-0.35163 0,-0.99914 -0.78078,-1.39054 -2.33831,-1.17218 -1.81057,0.25383 -2.25913,-0.0847 -1.9875,-1.5 0.28656,-1.49304 1.40168,-1.85786 6.08831,-1.99183 3.15563,-0.0902 5.73061,0.13479 5.72219,0.5 -0.025,1.08246 -1.65647,3.34177 -2.34649,3.24942 -0.35101,-0.047 -0.7507,0.25209 -0.8882,0.66459 -0.1375,0.4125 0.74659,0.89171 1.96465,1.06492 3.11337,0.44271 4.09726,-3.88912 1.92024,-8.45437 C 123.1715,115.43877 122.99268,114 124.3754,114 c 0.53273,0 0.72706,0.62948 0.43182,1.39885 -0.29523,0.76937 -0.10232,1.66737 0.42871,1.99556 0.6001,0.37088 1.10332,-5.55146 1.32968,-15.64885 0.35625,-15.891345 0.43263,-16.380965 3.50301,-22.455835 2.71193,-5.36563 2.9394,-6.37577 1.67256,-7.42716 -2.60295,-2.16026 -4.33614,-6.656875 -4.26411,-11.062905 0.0469,-2.870878 0.3118,-3.685917 0.79709,-2.45271 0.69689,1.770933 0.78661,1.773322 2.17971,0.05804 0.88757,-1.092825 0.96652,-1.496696 0.20291,-1.037932 -0.6875,0.413037 -1.25,0.274418 -1.25,-0.308041 0,-0.582459 0.46583,-1.059017 1.03518,-1.059017 0.71358,0 0.71358,-0.600925 0,-1.934259 -0.56935,-1.063842 -1.10588,-3.201342 -1.19228,-4.75 -0.0958,-1.716578 -0.43967,-0.863923 -0.88094,2.184259 -0.39811,2.75 -0.49122,-2.007841 -0.20692,-10.57298 0.56575,-17.044418 -0.23406,-21.700415 -4.1708,-24.279869 -1.72641,-1.131183 -2.60314,-1.22825 -3.44948,-0.381908 -1.92569,1.925688 -1.32278,3.886907 1.09059,3.547615 1.48088,-0.208195 2.34176,0.272585 2.57332,1.437142 0.26673,1.34137 -0.32295,1.75 -2.52535,1.75 -1.58032,0 -3.41332,-0.54 -4.07332,-1.2 -1.3705,-1.370497 -1.64091,-6.8 -0.33867,-6.8 0.47373,0 0.63721,1.2375 0.36329,2.75 -0.27392,1.5125 -0.21648,2.492466 0.12764,2.177703 0.34412,-0.314764 0.79185,-2.114764 0.99497,-4 0.32073,-2.976963 0.74956,-3.45096 3.26103,-3.604564 l 2.89174,-0.176862 -3,0.808547 -3,0.808546 2.75,0.243315 c 1.5125,0.133823 3.2,0.355815 3.75,0.493315 0.55,0.1375 1.45661,0.30625 2.0147,0.375 0.55808,0.06875 1.8311,1.467473 2.82893,3.108273 l 1.81424,2.983272 2.75236,-2.872842 c 1.96966,-2.055881 2.37377,-3.010457 1.42106,-3.356766 -0.73221,-0.266158 -0.20629,-0.496601 1.16871,-0.512095 3.00431,-0.03385 5.0685,-0.511515 6.75,-1.561979 0.79477,-0.496507 1.25,-0.225942 1.25,0.742936 0,1.865447 3.63064,3.949915 5.57814,3.202589 0.78202,-0.30009 1.42186,-0.09565 1.42186,0.454322 0,0.549968 -1.575,0.89387 -3.5,0.764229 -1.925,-0.129642 -3.5,-0.577906 -3.5,-0.996142 0,-0.418236 -0.85191,-1.216356 -1.89313,-1.7736 -1.45155,-0.776847 -2.49671,-0.538389 -4.48083,1.022319 -1.42324,1.119519 -2.48383,2.572113 -2.35687,3.227987 0.12696,0.655873 -0.44417,1.047854 -1.26917,0.871068 -1.20285,-0.257752 -1.25237,-0.06956 -0.25,0.95 1.48948,1.515016 1.67497,5.871429 0.25,5.871429 -0.56105,0 -1,2.770724 -1,6.312171 0,6.877137 2.91849,14.687829 5.48816,14.687829 1.36251,0 3.29659,2.516898 3.32989,4.333333 0.0241,1.317179 1.18195,2.133486 1.18195,0.833334 0,-0.69614 1.62742,-1.166667 4.03518,-1.166667 5.42724,0 10.97954,-3.546983 13.66998,-8.732813 1.9691,-3.795444 2.56404,-14.331519 0.88456,-15.665174 C 162.23323,26.995906 161.30881,25.375 160.94225,24 c -0.45346,-1.700929 -0.36587,-2.06634 0.27402,-1.143237 1.86892,2.696077 2.61703,-1.782311 0.78739,-4.713526 -0.71305,-1.14235 -1.00007,-1.14235 -1.81621,0 -0.73833,1.033436 -0.83518,0.939724 -0.40639,-0.393237 0.30962,-0.9625 0.1574,-1.75 -0.33828,-1.75 -0.49567,0 -1.18895,0.906534 -1.54061,2.014521 -0.62311,1.963241 -2.49539,1.863786 -2.49539,-0.132555 0,-0.55 0.40285,-0.751027 0.89522,-0.446727 0.49236,0.304301 1.14771,-0.10473 1.45632,-0.908958 0.69334,-1.806822 -0.6413,-2.736057 -2.7613,-1.922537 -0.87463,0.335629 -1.59024,0.112089 -1.59024,-0.496755 0,-1.580426 3.27298,-1.367752 5.55887,0.361208 2.39544,1.811818 3.81891,1.955453 2.79277,0.281803 -0.42974,-0.70093 0.31303,-0.524454 1.69099,0.401759 1.35155,0.908468 2.36362,2.258468 2.24904,3 -0.11459,0.741533 -0.33959,2.237386 -0.5,3.324118 -0.16042,1.086733 0.23333,1.986733 0.875,2 0.64166,0.01327 1.46308,0.320535 1.82536,0.682817 0.9342,0.934199 -3.21532,2.101704 -4.73308,1.331696 -0.69242,-0.351288 -0.47145,0.0068 0.49105,0.795695 0.9625,0.78892 1.76431,2.509791 1.7818,3.824158 0.0175,1.314366 0.6925,3.263265 1.5,4.330887 1.28026,1.692653 1.4682,1.724655 1.4682,0.25 0,-0.930122 -0.5051,-1.69113 -1.12244,-1.69113 -0.73143,0 -0.64433,-0.589424 0.25,-1.691958 0.93255,-1.149661 0.9718,-1.45126 0.12244,-0.940983 -0.6875,0.413036 -1.25,0.274417 -1.25,-0.308042 0,-0.582459 0.675,-1.059017 1.5,-1.059017 0.94256,0 1.5,-0.951002 1.5,-2.559017 0,-1.407459 0.38241,-2.322673 0.84981,-2.033808 0.96387,0.595708 0.7533,40.323044 -0.21888,41.295229 -0.34701,0.347011 -0.63093,-5.969071 -0.63093,-14.035737 0,-9.111111 -0.37879,-14.666667 -1,-14.666667 -0.55,0 -1.04486,0.5625 -1.09968,1.25 -0.0548,0.6875 -0.45997,0.125 -0.90032,-1.25 -0.75858,-2.368667 -0.80588,-2.329267 -0.90032,0.75 -0.0548,1.7875 0.35032,3.25 0.90032,3.25 0.55,0 1,0.476558 1,1.059017 0,0.582459 -0.5625,0.741442 -1.25,0.353296 -1,-0.564578 -1,-0.436381 0,0.640983 1.44676,1.558683 1.70145,4.343746 0.3191,3.489409 -0.512,-0.316431 -1.21356,-0.117988 -1.55902,0.440983 C 164.5714,47.54266 164.7653,48 165.34776,48 c 0.58246,0 1.05902,0.525 1.05902,1.166667 0,0.641666 -0.24798,0.918684 -0.55107,0.615595 -0.30309,-0.30309 -1.76842,0.63441 -3.25628,2.083333 -1.8617,1.812971 -2.57919,3.387032 -2.30105,5.04814 0.32433,1.936985 0.0684,2.284899 -1.29566,1.761454 -1.00653,-0.386242 -1.45063,-0.249093 -1.08886,0.336265 0.50424,0.815885 -0.995,1.328745 -3.50708,1.199704 -3.05771,-0.157069 -8.60467,-1.468101 -9.55759,-2.258949 -0.84398,-0.700448 -1.38553,-0.542815 -1.79424,0.522268 -0.93986,2.449234 -3.32678,1.78025 -7.09577,-1.988744 l -3.51427,-3.514266 2.73094,0.607211 c 1.50201,0.333967 3.48056,0.808692 4.39677,1.054944 0.91622,0.246253 1.95527,-0.02057 2.30902,-0.592945 0.62162,-1.005806 -1.92833,-1.535209 -5.78295,-1.200618 -0.99445,0.08632 -1.53358,-0.287224 -1.19806,-0.830101 0.3493,-0.565187 -0.0533,-0.732519 -0.94191,-0.391515 -1.15801,0.44437 -1.55194,-0.0662 -1.55194,-2.011454 0,-3.2646 1.00824,-3.291567 4,-0.106989 1.29175,1.375 3.05769,2.493109 3.92431,2.484687 1.38247,-0.01344 1.39175,-0.134181 0.0757,-0.984687 -0.825,-0.533156 -1.05,-1.021121 -0.5,-1.084367 0.55,-0.06325 -0.125,-0.425433 -1.5,-0.804859 -1.72648,-0.476416 -2.59538,-1.502317 -2.80826,-3.315686 -0.16954,-1.444201 -0.9061,-2.855237 -1.63681,-3.135636 -0.8894,-0.341294 -1.1719,0.08926 -0.85463,1.302507 0.26067,0.996778 0.0136,2.096819 -0.54901,2.444537 -0.61575,0.380557 -1.27281,-1.266255 -1.65067,-4.137142 -0.94199,-7.157069 -1.25715,-8.132777 -1.37904,-4.269354 -0.0607,1.925 0.30931,5.075 0.82232,7 0.513,1.925 1.16277,5.067427 1.44393,6.98317 0.28116,1.915744 1.00269,3.647004 1.60342,3.847246 0.7704,0.256802 0.74746,0.779498 -0.0779,1.773971 -2.06095,2.483287 -1.62046,9.132967 0.76286,11.516288 2.95163,2.95163 7.17545,1.97418 6.96844,-1.612585 -0.10511,-1.821301 -0.69151,-2.485285 -2.14467,-2.428436 -1.1,0.04303 -1.4347,0.306149 -0.74377,0.584704 0.69093,0.278554 1.00187,0.918028 0.69098,1.421052 -0.9997,1.617585 -2.44719,0.975575 -2.44719,-1.08541 0,-1.518864 0.66156,-1.996316 2.75,-1.984687 1.5125,0.0084 3.23282,0.345922 3.82294,0.75 1.77713,1.216874 2.53264,4.402552 1.37492,5.797512 -0.78429,0.94502 -0.76932,1.90226 0.0538,3.44031 0.90249,1.68633 0.80783,2.63864 -0.45366,4.56392 -2.12822,3.24807 -7.2542,3.40142 -8.4193,0.25188 -0.75453,-2.03969 -0.88208,-1.9652 -1.96777,1.14922 -0.74064,2.12465 -1.16093,11.03956 -1.16093,24.625305 0,29.07823 1.26251,27.82899 -27.67904,27.38827 l -10.179036,-0.155 0.59867,2.33663 c 0.32926,1.28515 1.42233,2.92466 2.42903,3.64334 2.26976,1.62038 2.3393,3.97346 0.1877,6.35096 -1.54221,1.70412 -1.40977,2.05513 2.16554,5.739 3.241796,3.34023 4.278316,3.84759 6.968656,3.411 2.11914,-0.34389 3.68844,0.0152 4.76302,1.08974 0.88143,0.88143 2.21975,1.6026 2.97403,1.6026 4.35493,0 5.15721,6.45232 1.02143,8.2148 -1.5125,0.64456 -3.56004,1.85006 -4.5501,2.67889 -1.45233,1.21582 -2.37867,1.28858 -4.79485,0.37657 -2.70299,-1.02026 -3.32419,-0.84114 -6.376116,1.83848 -2.50953,2.2034 -3.38611,3.79681 -3.3998,6.18006 -0.0102,1.76616 -0.32078,6.2487 -0.69029,9.9612 l -0.67183,6.75 8.866486,0.0789 c 4.87658,0.0434 8.304,0.30592 7.6165,0.58333 -0.75203,0.30345 -1.25,2.38339 -1.25,5.22105 0,2.59417 -0.48921,5.20588 -1.08713,5.8038 -0.78285,0.78285 -0.74038,1.30144 0.1517,1.85278 0.72541,0.44833 1.73971,0.0807 2.44738,-0.88713 0.66469,-0.90903 2.14487,-1.65278 3.28928,-1.65278 1.1444,0 2.33291,-0.40803 2.64113,-0.90674 0.30822,-0.49871 -0.42857,-0.64812 -1.63732,-0.33203 -1.95139,0.51031 -2.03561,0.39954 -0.75138,-0.98829 0.79549,-0.85966 1.78384,-1.35869 2.19634,-1.10896 0.4125,0.24973 0.75,-1.3725 0.75,-3.60496 0,-2.94135 0.41303,-4.05902 1.5,-4.05902 1.17949,0 1.5,1.38889 1.5,6.5 0,4.52517 -0.37978,6.50465 -1.25,6.51531 -0.92713,0.0114 -0.90227,0.23569 0.0962,0.8685 1.51078,0.95746 2.37473,15.86159 0.96979,16.72989 -0.45179,0.27922 -0.3756,1.34073 0.1693,2.3589 1.32637,2.47833 0.70642,11.48897 -0.92577,13.45564 -1.02594,1.23617 -3.42744,1.57176 -11.24775,1.57176 -10.684456,0 -13.906546,0.91399 -13.173726,3.73691 0.93139,3.58784 -4.0516,6.91104 -8.04478,5.36514 z m 5.4067,-8.80205 c 0,-1.65531 0.57714,-2.3 2.05901,-2.3 1.36617,0 1.80517,-0.41074 1.30461,-1.22065 -0.64243,-1.03948 -1.03284,-4.93797 -1.3048,-13.02935 -0.0324,-0.9625 -0.46156,-1.75 -0.95379,-1.75 -1.1422,0 -2.0208,8.0137 -1.09637,10 0.89413,1.92119 -0.78964,8.2534 -1.99632,7.50763 -0.5016,-0.31001 -1.35224,0.25896 -1.89032,1.26436 -0.82278,1.53739 -0.59229,1.82801 1.44983,1.82801 1.86705,0 2.42815,-0.53148 2.42815,-2.3 z m -32.58959,-4.12025 c -0.76895,-1.47386 -1.43249,-3.35475 -1.47454,-4.17975 -0.0498,-0.97634 -0.35022,-0.80179 -0.86066,0.5 -0.48595,1.23931 -0.26771,2.79105 0.57379,4.07983 0.74691,1.1439 1.03265,2.40518 0.63498,2.80285 -0.39766,0.39766 0.008,0.44263 0.90075,0.0999 1.43363,-0.55014 1.46006,-0.9369 0.22568,-3.30286 z m 4.1025,-6.12094 c -0.58059,-2.64342 -2.67003,-4.56836 -3.7675,-3.47089 -0.24756,0.24756 -0.005,2.70325 0.53988,5.45708 0.93478,4.72769 1.07012,4.89259 2.42638,2.95626 0.90711,-1.29508 1.20234,-3.11625 0.80124,-4.94245 z M 107.90678,236 c 0.33992,-0.55 0.16803,-1 -0.38197,-1 -0.55,0 -1.27811,0.45 -1.61803,1 -0.33992,0.55 -0.16803,1 0.38197,1 0.55,0 1.27811,-0.45 1.61803,-1 z m -50.889336,-3.57221 c -0.28913,-0.75345 0.19127,-2.08686 1.06754,-2.96314 1.18907,-1.18907 1.30513,-1.88132 0.45751,-2.72894 C 57.199274,225.39249 57.020744,222 58.293284,222 c 1.54056,0 1.93042,-6.32594 0.47928,-7.77707 -1.74617,-1.74617 -3.68315,-0.54455 -3.04652,1.88993 0.27142,1.03793 0.0809,1.88714 -0.42335,1.88714 -0.50427,0 -0.7462,1.9125 -0.53763,4.25 0.22146,2.48205 0.8498,4.146 1.51046,4 0.62219,-0.1375 1.13126,0.25248 1.13126,0.86663 0,0.61415 -0.86634,0.89008 -1.92519,0.61319 -1.35055,-0.35318 -1.76633,-0.0895 -1.39301,0.88336 0.2927,0.76275 0.87215,1.38682 1.28767,1.38682 0.41553,0 0.63176,1.12722 0.48053,2.50493 -0.15812,1.44044 0.14177,2.24737 0.70569,1.89885 0.53936,-0.33335 0.7441,-1.22254 0.45497,-1.97599 z M 101.40678,234 c 0,-0.55 -0.42345,-1 -0.94099,-1 -0.517536,0 -1.219086,0.45 -1.559006,1 -0.33992,0.55 0.0835,1 0.94098,1 0.857456,0 1.559016,-0.45 1.559016,-1 z m 15.44113,-0.50245 c -1.61812,-1.25245 -1.64993,-1.40105 -0.19113,-0.89301 1.43008,0.49803 1.75,0.0219 1.75,-2.60454 0,-2.34705 -0.37839,-3.06878 -1.4028,-2.67567 -0.77154,0.29607 -2.17478,-0.0262 -3.11831,-0.71611 -1.34662,-0.98467 -1.55029,-1.9913 -0.94715,-4.68131 0.42259,-1.8848 0.96333,-2.86441 1.20164,-2.17691 0.23831,0.6875 1.27002,1.25 2.29269,1.25 1.56979,0 1.85338,-0.7788 1.82068,-5 -0.0279,-3.60746 -0.42976,-5 -1.44274,-5 -0.77221,0 -1.40401,-0.47656 -1.40401,-1.05902 0,-0.58246 0.41891,-0.80012 0.9309,-0.48369 0.512,0.31644 1.17523,0.18 1.47386,-0.30319 0.44614,-0.72186 -1.82478,-0.86441 -4.48809,-0.28172 -0.91574,0.20034 -0.68176,3.12762 0.25,3.12762 1.67316,0 0.77719,4.01811 -1.16667,5.23207 -1.71819,1.07303 -2,2.33203 -2,8.93515 0,8.23666 0.13933,8.44108 5.94113,8.71678 2.36303,0.11229 2.37903,0.0679 0.5,-1.38645 z m 3.26613,-4.73589 c -0.23919,-1.24391 -0.44398,-0.46166 -0.45508,1.73834 -0.0111,2.2 0.18461,3.21775 0.4349,2.26166 0.25029,-0.95609 0.25937,-2.75609 0.0202,-4 z m -16.20246,-0.0117 c -0.35976,-1.7875 -0.91043,-4.14647 -1.2237,-5.24216 -0.49928,-1.74622 -0.36797,-1.82482 1.06364,-0.63669 0.89828,0.7455 1.34366,1.824 0.98974,2.39667 -0.38982,0.63073 -0.15401,0.73868 0.59814,0.27382 0.89411,-0.55259 0.93736,-1.07166 0.15451,-1.85451 -0.59792,-0.59792 -1.13933,-2.45963 -1.20313,-4.13713 -0.0684,-1.79894 -0.30812,-2.30866 -0.58437,-1.24265 -0.41149,1.58786 -0.7663,1.46641 -2.92156,-1 -1.349246,-1.54404 -2.180606,-2.06537 -1.847456,-1.1585 0.33316,0.90687 0.10347,1.95927 -0.51042,2.33867 -1.33911,0.82761 -0.33849,9.28039 1.35595,11.45444 0.859716,1.10306 0.830066,1.26546 -0.12614,0.69098 -0.6875,-0.41304 -1.25,-0.27442 -1.25,0.30804 0,0.58246 1.38575,1.05902 3.079446,1.05902 2.94177,0 3.05021,-0.14531 2.42535,-3.25 z m -2.42585,-2.33333 c 0.048,-1.16495 0.28494,-1.4019 0.60416,-0.60417 0.28887,0.72187 0.25335,1.58437 -0.0789,1.91667 -0.33229,0.33229 -0.56864,-0.25834 -0.52522,-1.3125 z m -2.442776,-5.91093 c 0.31537,-0.82184 0.976236,-1.24528 1.468606,-0.94098 1.41193,0.87262 1.04399,2.43524 -0.573396,2.43524 -0.89208,0 -1.24352,-0.5866 -0.89521,-1.49426 z m -27.68169,6.23078 c -0.93735,-3.37771 -7.59323,-10.07782 -9.09144,-9.15187 -2.07892,1.28484 -0.73184,4.44333 2.46469,5.77892 2.07389,0.86653 3.81315,2.56233 4.61605,4.50071 1.6522,3.98877 3.19107,3.12565 2.0107,-1.12776 z m 35.728626,1.07598 c -0.31922,-0.79773 -0.55618,-0.56078 -0.60416,0.60417 -0.0434,1.05416 0.19292,1.64479 0.52522,1.3125 0.33229,-0.3323 0.36781,-1.1948 0.0789,-1.91667 z m -15.993786,-5.5625 c -0.25153,-0.9625 -0.45732,-0.175 -0.45732,1.75 0,1.925 0.20579,2.7125 0.45732,1.75 0.25153,-0.9625 0.25153,-2.5375 0,-3.5 z m -19.68932,-1.62756 c 0,-0.20765 -0.7875,-0.99515 -1.75,-1.75 -1.58606,-1.24387 -1.62143,-1.2085 -0.37756,0.37756 1.30637,1.66575 2.12756,2.19548 2.12756,1.37244 z m 25.60696,-4.58227 c 0.19469,-1.67209 -0.0422,-3.04017 -0.52649,-3.04017 -0.48426,0 -0.88047,1.605 -0.88047,3.56667 0,4.1868 0.89727,3.85104 1.40696,-0.5265 z m 11.199906,1.43337 c -0.30789,-0.30789 -0.86705,0.24711 -1.24258,1.23333 -0.54268,1.4252 -0.42782,1.54006 0.5598,0.5598 0.68342,-0.67834 0.99067,-1.48524 0.68278,-1.79313 z m 0.45756,-2.07131 c 0.90144,-0.90143 -0.3398,-3.47368 -1.36921,-2.83747 -0.49237,0.3043 -0.89522,1.20172 -0.89522,1.99426 0,1.47259 1.19141,1.91624 2.26443,0.84321 z m -3.76443,-1.40223 c 0.33992,-0.55 0.14148,-1 -0.44098,-1 -0.58246,0 -1.05902,0.45 -1.05902,1 0,0.55 0.19844,1 0.44098,1 0.24254,0 0.7191,-0.45 1.05902,-1 z m 15.18933,-3.75 c -0.25153,-0.9625 -0.45733,-0.175 -0.45733,1.75 0,1.925 0.2058,2.7125 0.45733,1.75 0.25152,-0.9625 0.25152,-2.5375 0,-3.5 z m -58.901606,1.04417 c 0.16747,-2.0235 -0.0632,-2.41871 -0.91467,-1.56722 -0.62624,0.62624 -0.86799,1.84386 -0.53722,2.70583 0.85372,2.22477 1.19573,1.95655 1.45189,-1.13861 z m 38.72735,-1.54417 c -0.1866,-1.7875 -0.1154,-2.6847 0.158226,-1.99377 0.76273,1.92591 2.3267,0.41893 2.3267,-2.24192 0,-1.41403 0.70485,-2.55186 1.75,-2.82498 1.16588,-0.30468 0.91555,-0.48543 -0.75,-0.54153 -2.99101,-0.10073 -5.999996,1.97001 -5.999996,4.12911 0,0.85603 -0.53438,1.73455 -1.1875,1.95226 -0.79546,0.26515 -0.54785,1.09051 0.75,2.5 2.723,2.95723 3.342076,2.75193 2.95257,-0.97917 z m -6.85279,-1 c -0.27742,-0.6875 -0.50439,-0.125 -0.50439,1.25 0,1.375 0.22697,1.9375 0.50439,1.25 0.27741,-0.6875 0.27741,-1.8125 0,-2.5 z m 18.171046,1.98703 c -0.18333,-0.2363 0.28427,-1.1738 1.03911,-2.08334 0.75485,-0.90953 1.09235,-1.65369 0.75,-1.65369 -0.34234,0 -0.9356,-0.0118 -1.31834,-0.0262 -0.38275,-0.0144 -0.86212,1.21494 -1.06527,2.73193 -0.20316,1.517 -0.0775,2.4663 0.27923,2.10957 0.35673,-0.35673 0.49861,-0.84194 0.31527,-1.07824 z m -5.83333,-1.23703 c 0,-0.825 -0.17686,-1.5 -0.39301,-1.5 -0.21616,0 -0.65203,0.675 -0.96862,1.5 -0.31658,0.825 -0.13972,1.5 0.39301,1.5 0.53274,0 0.96862,-0.675 0.96862,-1.5 z m -40.057106,-4.46957 c 6.02179,-7.69395 10.37713,-15.1104 9.42991,-16.05762 -0.6093,-0.6093 -2.12417,0.56168 -4.16968,3.22313 -2.38054,3.09735 -2.88769,4.38646 -1.95792,4.97677 0.9192,0.58359 0.8185,0.80076 -0.37651,0.81198 -0.89723,0.008 -2.89844,1.70281 -4.44714,3.76531 -3.62103,4.82234 -4.53826,5.39622 -6.30173,3.9428 -1.23611,-1.01877 -1.27721,-0.87361 -0.2817,0.99491 1.66895,3.13253 4.86792,2.47839 8.10477,-1.65728 z m 0.39044,-3.48644 c 0,-0.80081 0.38234,-1.21971 0.84965,-0.9309 0.4673,0.28881 0.59074,0.94401 0.27431,1.45601 -0.80862,1.30838 -1.12396,1.16106 -1.12396,-0.52511 z m 3.66667,-6.48497 c 0,-0.51754 0.375,-1.17275 0.83333,-1.45601 0.45833,-0.28327 0.83333,0.14017 0.83333,0.94098 0,0.8008 -0.375,1.45601 -0.83333,1.45601 -0.45833,0 -0.83333,-0.42344 -0.83333,-0.94098 z m 26,5.98895 c 0,-3.25033 -0.46459,-5.01227 -1.41811,-5.37817 -1.13324,-0.43487 -1.33448,0.39738 -1.00176,4.14301 0.61088,6.87715 0.6759,7.14699 1.58653,6.58418 0.45834,-0.28326 0.83334,-2.69032 0.83334,-5.34902 z m 9.999996,3.89301 c 0,-0.51754 -0.375,-0.94098 -0.83333,-0.94098 -0.45834,0 -0.83334,0.65521 -0.83334,1.45601 0,0.80081 0.375,1.22425 0.83334,0.94098 0.45833,-0.28326 0.83333,-0.93847 0.83333,-1.45601 z m -42.499996,-6.16258 c 0.55,-0.85036 2.63739,-3.96087 4.63865,-6.91225 6.04822,-8.91967 8.86319,-15.90858 8.84603,-21.96264 -0.009,-3.304 -0.34151,-4.889 -0.85486,-4.07933 -0.50491,0.79637 -2.19283,1.19497 -4.23469,1 -2.90796,-0.27766 -3.72805,0.16337 -5.71529,3.07361 -2.07783,3.04291 -5.3287,10.70787 -8.41282,19.83591 -0.80865,2.39336 -0.77518,4.65197 0.1288,8.6914 1.15789,5.17398 1.30931,5.36521 2.91278,3.67855 0.93027,-0.97853 2.1414,-2.47489 2.6914,-3.32525 z m 38.066366,1.32382 c -1.170336,-0.45831 -1.511116,-1.01833 -0.8633,-1.41871 0.58867,-0.36382 1.6264,0.009 2.30607,0.8275 1.72123,2.07396 2.99086,1.85703 2.99086,-0.51101 0,-1.1 -0.5625,-2.00689 -1.25,-2.01531 -0.90518,-0.0111 -0.86984,-0.2561 0.12812,-0.8882 0.75796,-0.48009 1.11527,-1.29817 0.79402,-1.81796 -0.82054,-1.32767 -6.848856,-0.29311 -6.359096,1.09134 0.21989,0.62157 0.0256,2.14263 -0.43187,3.38013 -0.73704,1.99398 -0.52157,2.242 1.893576,2.17971 2.29624,-0.0592 2.42085,-0.18948 0.79162,-0.82749 z m -45.931186,-8.82235 c 0.13418,-0.91423 0.56769,-2.8137 0.96334,-4.22105 0.39566,-1.40735 0.61123,-3.39551 0.47905,-4.41813 -0.13218,-1.02262 0.20433,-1.5845 0.74779,-1.24862 0.58611,0.36224 0.78735,-0.30526 0.49463,-1.64069 -0.40624,-1.85333 -0.29184,-1.98617 0.64702,-0.75138 0.9793,1.28799 1.09757,1.24519 0.83674,-0.30282 -0.65355,-3.87887 -2.33152,-1.88718 -3.78237,4.48952 -0.83676,3.67769 -1.82788,6.98419 -2.20248,7.34777 -0.37461,0.36358 -0.43151,1.31147 -0.12646,2.10642 0.64624,1.6841 1.59318,1.02071 1.94274,-1.36102 z m 38.04793,-1.46737 c -0.31923,-0.79773 -0.55618,-0.56078 -0.60417,0.60417 -0.0434,1.05416 0.19293,1.64479 0.52522,1.3125 0.33229,-0.3323 0.36782,-1.1948 0.079,-1.91667 z m -40,-3 c -0.31923,-0.79773 -0.55618,-0.56078 -0.60417,0.60417 -0.0434,1.05416 0.19293,1.64479 0.52522,1.3125 0.33229,-0.3323 0.36782,-1.1948 0.079,-1.91667 z m 24.09628,-2.89083 c 0.27057,-2.34514 0.23107,-2.36032 -1.25,-0.48054 -1.85194,2.35051 -1.98039,3.87406 -0.27939,3.31388 0.6875,-0.22642 1.37573,-1.50142 1.52939,-2.83334 z m -23.09628,-1.10917 c -0.31923,-0.79773 -0.55618,-0.56078 -0.60417,0.60417 -0.0434,1.05416 0.19293,1.64479 0.52522,1.3125 0.33229,-0.3323 0.36782,-1.1948 0.079,-1.91667 z m 5.86048,-9.82907 c 2.0679,-0.78622 2.42452,-1.31692 1.57377,-2.34201 -0.60501,-0.72899 -0.76642,-1.69368 -0.35869,-2.14375 0.40773,-0.45008 0.14889,-0.47611 -0.5752,-0.0579 -0.7241,0.41825 -1.06978,1.00722 -0.76819,1.3088 0.30159,0.30159 -0.41233,1.38153 -1.58648,2.39987 -2.43152,2.10884 -2.08263,2.27872 1.71479,0.83495 z m 29.4178,-4.9275 c -3.92303,-1.92 -4.7758,-1.84334 -2.81726,0.25328 0.74024,0.79244 2.45577,1.44079 3.81228,1.44079 2.23027,0 2.13502,-0.16217 -0.99502,-1.69407 z m 7.76191,-4.07909 c -0.0762,-1.01106 -0.38256,-1.71385 -0.68089,-1.56175 -0.29833,0.15209 -1.4298,0.59512 -2.51439,0.98451 -1.67052,0.59976 -1.74696,0.86427 -0.5,1.73033 1.11958,0.77758 1.17123,1.14425 0.21575,1.53161 -0.69093,0.2801 -0.98376,0.95016 -0.65073,1.48901 0.89219,1.4436 4.29442,-1.99443 4.13026,-4.17371 z m -3.90779,-3.64538 2.66913,-0.66991 -2.74232,-0.91411 c -2.00514,-0.66838 -2.74232,-1.57961 -2.74232,-3.38979 0,-1.36163 -0.40776,-2.22368 -0.90612,-1.91567 -0.49837,0.30801 -0.67737,1.43478 -0.39778,2.50393 0.39957,1.52793 -0.20902,2.15041 -2.84388,2.90882 -3.32242,0.95631 -3.32694,0.9657 -0.5086,1.05508 2.05799,0.0653 3.01378,0.71181 3.45956,2.34019 0.5006,1.8287 0.68403,1.92245 0.97957,0.50068 0.2,-0.96212 1.56474,-2.05078 3.03276,-2.41922 z m 7.820586,-0.0287 c -0.40967,-0.40967 -1.163486,-0.0829 -1.675156,0.72619 -1.53967,2.43457 -1.07785,3.51652 0.729526,1.70914 0.92976,-0.92977 1.3553,-2.02566 0.94563,-2.43533 z m 8.3639,-0.30276 c 0,-1.65 -0.37206,-3 -0.82681,-3 -0.45474,0 -0.62867,1.35 -0.3865,3 0.24217,1.65 0.61423,3 0.82681,3 0.21257,0 0.3865,-1.35 0.3865,-3 z m -29.574206,-0.66722 c 0.35187,-0.91697 0.24595,-2.06104 -0.23539,-2.54238 -1.11819,-1.11819 -3.58735,1.75832 -2.71748,3.1658 0.95161,1.53972 2.22604,1.27066 2.95287,-0.62342 z m -2.42579,-0.27376 c 0,-0.51754 0.44484,-1.21592 0.98854,-1.55194 0.56686,-0.35034 0.73451,0.0511 0.39301,0.94098 -0.66479,1.73242 -1.38155,2.04939 -1.38155,0.61096 z m -6.27084,0.33681 c -0.33229,-0.33229 -1.19479,-0.36781 -1.91666,-0.0789 -0.79774,0.31922 -0.56078,0.55618 0.60416,0.60416 1.05417,0.0434 1.64479,-0.19293 1.3125,-0.52522 z m 31.770836,-0.39583 c -0.33992,-0.55 -1.15398,-0.99311 -1.80902,-0.98469 -0.71562,0.009 -0.59228,0.40223 0.30902,0.98469 1.92112,1.24153 2.2673,1.24153 1.5,0 z m -3.999996,-1 c -0.33992,-0.55 -0.0665,-1 0.60765,-1 0.674116,0 0.955616,-0.27006 0.625536,-0.60014 -0.898206,-0.89821 -2.855456,0.59329 -2.190486,1.66924 0.31643,0.51199 0.80033,0.9309 1.07533,0.9309 0.275,0 0.22189,-0.45 -0.11803,-1 z m 3.845076,-2.54313 c -0.32569,-0.84872 -0.80663,-1.32866 -1.06875,-1.06653 -0.26213,0.26213 -0.17998,0.95654 0.18255,1.54313 0.98605,1.59546 1.56238,1.28551 0.8862,-0.4766 z m -17.015206,-1.87411 c 0.29911,-0.77948 -0.16715,-1.69008 -1.03614,-2.02354 -2.01743,-0.77416 -2.50181,-0.26504 -1.71028,1.79765 0.77462,2.01865 2.01919,2.12101 2.74642,0.22589 z m 9.09624,-2.83276 c -0.53467,-1.30762 -5.42611,-5.2174 -5.42611,-4.33715 0,0.47803 5.21998,5.58715 5.70839,5.58715 0.12586,0 -10e-4,-0.5625 -0.28228,-1.25 z m -5.97633,-9.83126 c -0.25424,-0.41135 0.10306,-0.97583 0.79399,-1.25438 0.7827,-0.31556 0.8312,-0.53622 0.12867,-0.58541 -0.62015,-0.0434 -1.62551,0.52105 -2.23412,1.25438 -0.83502,1.00614 -0.75317,1.33334 0.33356,1.33334 0.79208,0 1.23213,-0.33657 0.9779,-0.74793 z m 3.6743,-7.18541 c -0.98761,-0.98026 -1.10248,-0.8654 -0.55979,0.5598 0.37553,0.98622 0.93469,1.54122 1.24258,1.23333 0.30789,-0.30789 6.3e-4,-1.11479 -0.68279,-1.79313 z m 16.125916,-3.39561 c -0.6875,-0.27741 -1.8125,-0.27741 -2.5,0 -0.6875,0.27741 -0.125,0.50439 1.25,0.50439 1.375,0 1.9375,-0.22698 1.25,-0.50439 z m 20.51233,-2.6261 c 0.78375,-0.60658 0.91933,-1.40058 0.35761,-2.0943 -0.4976,-0.61453 -1.12595,-2.01732 -1.39633,-3.11732 -0.29784,-1.21168 -0.53733,-0.60073 -0.60761,1.55 -0.0638,1.9525 -0.6785,4.15602 -1.366,4.8967 -1.01585,1.09444 -0.96902,1.1964 0.25,0.5443 0.825,-0.44132 2.06805,-1.24204 2.76233,-1.77938 z m -9.38077,-2.26356 c 0.34149,-0.88992 0.17385,-1.29132 -0.39301,-0.94098 -0.5437,0.33602 -0.98855,1.0344 -0.98855,1.55194 0,1.43843 0.71677,1.12146 1.38156,-0.61096 z m -3.24485,-2.23582 c -0.72144,-0.24048 -1.78716,0.0382 -2.36826,0.61931 -0.74207,0.74207 -0.35164,0.87221 1.31171,0.43724 1.3522,-0.35361 1.8055,-0.8069 1.05655,-1.05655 z m 14.60337,-13.92573 c -0.19905,-3.18258 -0.36376,-0.83651 -0.36601,5.21349 -0.002,6.05 0.1606,8.65393 0.36191,5.78651 0.2013,-2.86742 0.20315,-7.81742 0.004,-11 z m -1.74008,8.71349 c 0,-0.55 -0.47656,-1 -1.05902,-1 -0.58246,0 -0.7809,0.45 -0.44098,1 0.33992,0.55 0.81648,1 1.05902,1 0.24254,0 0.44098,-0.45 0.44098,-1 z M 129.207,98.874475 c -0.22583,-4.98383 0.01,-6.50594 0.94978,-6.14301 1.45011,0.55971 1.74475,-5.4027 0.37385,-7.56535 -1.6608,-2.61997 -2.44059,2.19538 -2.72604,16.833845 -0.23445,12.02251 -0.11315,13.56026 0.70993,9 0.54598,-3.025 0.8576,-8.48147 0.69248,-12.125485 z m 13.5068,-20.98859 c 0.57683,-0.92067 0.6599,-2.42427 0.19337,-3.5 -0.44985,-1.03726 -0.73532,-2.25687 -0.63437,-2.71025 0.10094,-0.45339 -0.2684,-0.54502 -0.82076,-0.20364 -0.65898,0.40727 -0.61323,1.24689 0.13304,2.44186 1.51723,2.42947 0.47442,4.81821 -2.36715,5.42235 -2.2833,0.48544 -2.28225,0.48939 0.0867,0.32756 1.31883,-0.0901 2.85295,-0.89014 3.40915,-1.77788 z m -1.49812,-1.63592 c -0.23883,-1.23747 -1.30734,-1.7597 -3.64835,-1.78312 -3.69927,-0.037 -5.2397,1.02622 -1.85608,1.2811 1.19125,0.0897 2.32257,0.63314 2.51405,1.20758 0.60505,1.81514 3.35179,1.16706 2.99038,-0.70556 z m -7.98284,-6.11822 c -1.27933,-1.57752 -2.51533,-2.700746 -2.74667,-2.49606 -0.42331,0.37455 3.92153,5.36428 4.67098,5.36428 0.22096,0 -0.64498,-1.2907 -1.92431,-2.86822 z m 5.90311,2.26405 c -0.3323,-0.33229 -1.1948,-0.36782 -1.91667,-0.079 -0.79773,0.31922 -0.56078,0.55618 0.60417,0.60417 1.05416,0.0434 1.64479,-0.19293 1.3125,-0.52522 z m 3.95394,-4.58333 c -0.31922,-0.797738 -0.55618,-0.560781 -0.60416,0.60416 -0.0434,1.05417 0.19292,1.64479 0.52522,1.3125 0.33229,-0.33229 0.36781,-1.19479 0.0789,-1.91666 z m 12.56689,-9.474786 c -0.6875,-0.277412 -1.8125,-0.277412 -2.5,0 -0.6875,0.277413 -0.125,0.504386 1.25,0.504386 1.375,0 1.9375,-0.226973 1.25,-0.504386 z m -9.26357,-1.578266 c 1.09254,0.682301 2.33004,1.226863 2.75,1.210138 0.41996,-0.01672 -0.0239,-0.489085 -0.98643,-1.04969 -0.9625,-0.560605 -1.75,-1.446921 -1.75,-1.969591 0,-1.44738 5.99493,-1.149522 6.0318,0.29969 0.0207,0.812722 0.46242,0.684449 1.26276,-0.36668 1.00425,-1.318938 1.45428,-1.37761 2.44356,-0.318579 0.95656,1.024004 0.89694,1.396664 -0.28236,1.764891 -1.10624,0.345417 -1.0594,0.428254 0.18016,0.31858 0.92132,-0.08152 1.78828,-0.921757 1.92657,-1.8672 0.13829,-0.945444 -0.26919,-1.620444 -0.90553,-1.5 -0.63633,0.120443 -1.01907,-0.419685 -0.85054,-1.200285 0.26269,-1.216683 0.0664,-1.22008 -1.37501,-0.0238 -0.9248,0.767511 -2.99035,1.258178 -4.59012,1.090373 -1.60413,-0.168264 -4.40492,0.577712 -6.2448,1.663269 -2.154,1.270891 -3.8252,1.658618 -4.71632,1.094212 -0.75909,-0.480786 -1.83017,-0.865101 -2.38017,-0.854034 -0.55,0.01107 0.0991,0.62888 1.44254,1.372917 1.8563,1.028101 2.87636,1.081869 4.25,0.224017 1.3605,-0.849645 2.29868,-0.822005 3.79389,0.111772 z m 14.83632,-5.045881 c 0.81882,-0.986615 0.46945,-1.335935 -1.49905,-1.498853 -2.17614,-0.180103 -2.37741,0.01564 -1.32275,1.286427 1.50688,1.815676 1.49214,1.814567 2.8218,0.212426 z m 2.25376,-4.070561 c 0.0421,-0.628656 0.23859,-2.043011 0.43669,-3.143011 l 0.36018,-2 -1.40258,2 c -0.77142,1.1 -1.84089,2.51455 -2.37658,3.143444 -0.5357,0.628895 -0.73205,1.38539 -0.43634,1.681099 0.83069,0.830698 3.33285,-0.400044 3.41863,-1.681532 z M 133.23957,31.365518 c -0.22532,-2.833006 0.0909,-4.505978 0.91107,-4.820723 0.69088,-0.265114 1.24925,-1.058649 1.24083,-1.76341 -0.009,-0.787598 -0.29843,-0.896031 -0.75,-0.281385 -0.85603,1.165159 -3.23469,1.797747 -3.23469,0.860243 0,-0.351867 0.7875,-1.252971 1.75,-2.002454 1.64789,-1.283186 1.642,-1.324877 -0.10092,-0.714525 -1.01801,0.356494 -2.14301,0.175569 -2.5,-0.402055 -0.357,-0.577624 -0.64908,1.156803 -0.64908,3.854283 0,2.697479 0.15,4.454508 0.33333,3.904508 0.18334,-0.55 0.77239,-1 1.30902,-1 0.53663,0 0.69675,0.451322 0.35583,1.002937 -0.34091,0.551616 -0.27161,3.139116 0.15402,5.75 0.90886,5.575186 1.73019,2.522886 1.18059,-4.387419 z M 170.11251,30.75 c -0.23835,-1.2375 -0.43337,-0.225 -0.43337,2.25 0,2.475 0.19502,3.4875 0.43337,2.25 0.23836,-1.2375 0.23836,-3.2625 0,-4.5 z m -48.45573,-9.412281 c -0.6875,-0.277412 -1.8125,-0.277412 -2.5,0 -0.6875,0.277413 -0.125,0.504386 1.25,0.504386 1.375,0 1.9375,-0.226973 1.25,-0.504386 z m 43.75,-2.715274 c 0,-0.207656 -0.7875,-0.995156 -1.75,-1.75 -1.58606,-1.243871 -1.62143,-1.208501 -0.37756,0.377555 1.30637,1.665748 2.12756,2.195479 2.12756,1.372445 z m -37,-1 c 0,-0.207656 -0.7875,-0.995156 -1.75,-1.75 -1.58606,-1.243871 -1.62143,-1.208501 -0.37756,0.377555 1.30637,1.665748 2.12756,2.195479 2.12756,1.372445 z M 14.601734,242.5 c 0.0204,-1.65 0.24449,-2.20394 0.49804,-1.23097 0.25354,0.97297 0.23687,2.32297 -0.037,3 -0.27393,0.67703 -0.48137,-0.11903 -0.46099,-1.76903 z m 0.13319,-10 c 0.004,-3.85 0.18518,-5.30246 0.40165,-3.2277 0.21648,2.07477 0.21285,5.22477 -0.008,7 -0.22087,1.77524 -0.39799,0.0777 -0.39355,-3.7723 z m 155.279856,-4.07513 c 0.29213,-6.39705 1.392,-6.86444 1.392,-0.59154 0,2.84167 -0.36021,5.16667 -0.80047,5.16667 -0.44026,0 -0.70645,-2.05881 -0.59153,-4.57513 z M 14.859894,188 c 0,-20.625 0.13298,-29.0625 0.29551,-18.75 0.16253,10.3125 0.16253,27.1875 0,37.5 -0.16253,10.3125 -0.29551,1.875 -0.29551,-18.75 z m -4.22111,32 c 0,-1.925 0.20579,-2.7125 0.45732,-1.75 0.25153,0.9625 0.25153,2.5375 0,3.5 -0.25153,0.9625 -0.45732,0.175 -0.45732,-1.75 z m 159.498166,-5.25 c 0.7251,-8.38438 1.26983,-8.56312 1.26983,-0.41667 0,3.66667 -0.40733,6.66667 -0.90517,6.66667 -0.50133,0 -0.66403,-2.78842 -0.36466,-6.25 z M 10.485724,214.41667 c 0.048,-1.16495 0.28494,-1.4019 0.60417,-0.60417 0.28887,0.72187 0.25334,1.58437 -0.0789,1.91667 -0.33229,0.33229 -0.56864,-0.25834 -0.52522,-1.3125 z M 10.352474,174.75 c -0.10417,-71.455 0.12027,-116.149297 0.58561,-116.614636 0.25778,-0.257783 0.4687,34.256301 0.4687,76.697966 0,42.44167 -0.225,77.16667 -0.5,77.16667 -0.275,0 -0.52444,-16.7625 -0.55431,-37.25 z m 159.124596,31.55902 c 0.0386,-0.44496 0.45702,-1.70902 0.92971,-2.80902 0.82859,-1.92824 0.86195,-1.92138 0.92971,0.19098 0.0387,1.20504 -0.37971,2.4691 -0.92971,2.80902 -0.55,0.33992 -0.96837,0.25398 -0.92971,-0.19098 z M 115.40678,196.5 c -1.01957,-1.22851 -0.95124,-1.5 0.37756,-1.5 0.89234,0 1.62244,0.675 1.62244,1.5 0,0.825 -0.1699,1.5 -0.37756,1.5 -0.20765,0 -0.93775,-0.675 -1.62244,-1.5 z m 54.71025,-2.5 c -0.28766,-1.1 -0.11514,-2 0.38337,-2 0.49851,0 0.90638,0.9 0.90638,2 0,1.1 -0.17252,2 -0.38337,2 -0.21085,0 -0.61872,-0.9 -0.90638,-2 z m -55.89775,-1.68311 c 0.72187,-0.28887 1.58437,-0.25335 1.91667,0.0789 0.33229,0.33229 -0.25834,0.56864 -1.3125,0.52522 -1.16495,-0.048 -1.4019,-0.28494 -0.60417,-0.60416 z M 169.40678,189 c 0,-1.1 0.45,-2 1,-2 0.55,0 1,0.9 1,2 0,1.1 -0.45,2 -1,2 -0.55,0 -1,-0.9 -1,-2 z m 0.0997,-6.75 c 0.089,-3.34672 0.18578,-3.48115 0.90032,-1.25 1.14477,3.57455 1.14477,5 0,5 -0.55,0 -0.95514,-1.6875 -0.90032,-3.75 z m 0.47674,-28.24305 c 0.042,-11.54622 0.3914,-21.30811 0.77638,-21.69308 0.38497,-0.38497 0.65843,9.06192 0.60769,20.99309 -0.0507,11.93117 -0.40012,21.69306 -0.77638,21.69308 -0.37626,2e-5 -0.64972,-9.44687 -0.60769,-20.99309 z M 14.811574,134.5 c 10e-4,-8.8 0.15425,-12.26613 0.33996,-7.70252 0.18572,4.56362 0.18468,11.76362 -0.002,16 -0.18698,4.23639 -0.33893,0.50252 -0.33766,-8.29748 z m 49.03307,-2.90567 c -1.34641,-0.94319 -2.5612,-1.1288 -3.5,-0.53476 -0.79083,0.50039 -2.88999,0.9167 -4.66481,0.92512 -2.41654,0.0115 -3.67223,-0.66583 -5,-2.69691 -1.56172,-2.38895 -1.77305,-5.33895 -1.77305,-24.75 0,-18.423605 -0.27304,-22.639395 -1.6649,-25.706215 -0.91569,-2.01764 -1.51701,-3.81764 -1.33627,-4 0.18074,-0.18236 -1.07521,-0.43322 -2.79099,-0.55746 -3.01073,-0.21801 -5.10085,1.28099 -4.08284,2.92815 0.27117,0.43876 1.36647,0.79775 2.43401,0.79775 1.06754,0 1.94099,0.675 1.94099,1.5 0,1.83681 -5.0408,2.0592 -6.8,0.3 -1.496,-1.496 -1.5577,-5.0423 -0.11287,-6.48714 0.78284,-0.78284 0.78284,-1.27519 0,-1.75901 -1.45436,-0.89885 -1.38405,-4.856942 0.11287,-6.353855 0.66,-0.66 2.5725,-1.138718 4.25,-1.063818 2.71614,0.121276 2.77635,0.185274 0.55,0.584676 -3.59524,0.644977 -4.57595,1.978739 -1.28142,1.742716 1.52978,-0.109595 1.96761,0.001 0.97296,0.245793 -2.66186,0.655077 -1.62949,3.737438 1.36918,4.087968 2.63065,0.3075 5.58796,-2.06991 5.96751,-4.797335 0.57658,-4.143395 -0.17936,-7.010512 -2.12258,-8.050494 -1.73766,-0.929968 -2.51544,-0.725268 -4.56685,1.201928 l -2.47249,2.322789 -1.74614,-2.314912 c -1.56518,-2.074996 -1.88186,-2.15139 -3.0556,-0.737112 C 33.587224,59.487501 31.480124,60 27.984334,60 c -5.33248,0 -7.57755,-1.192729 -7.57755,-4.025686 0,-0.894127 -1.08798,-2.64779 -2.41774,-3.897029 l -2.41773,-2.271343 -0.44609,2.347029 c -0.42277,2.224385 -0.4532,2.209727 -0.58226,-0.280526 -0.1371,-2.645309 1.98255,-5.420379 3.20583,-4.197102 0.36189,0.361895 0.65799,-0.290452 0.65799,-1.449659 0,-1.159208 -0.5625,-2.431354 -1.25,-2.826992 -0.6875,-0.395639 -0.91641,-0.3511 -0.50868,0.09897 C 17.457524,44.391151 15.696784,47 14.284334,47 c -0.48265,0 -0.87755,-1.151558 -0.87755,-2.559017 0,-1.583706 0.41317,-2.303659 1.08409,-1.889009 0.68973,0.426276 0.96256,-0.185146 0.75,-1.680767 -0.18375,-1.292927 -1.12159,-2.500869 -2.08409,-2.684315 -1.54387,-0.294253 -1.76775,0.646856 -1.90068,7.989784 L 11.105434,54.5 10.323054,45 c -0.7925104,-9.623029 -0.20359,-26.457422 1.00585,-28.752338 0.363,-0.688786 0.54942,2.027286 0.41428,6.035714 -0.22215,6.588864 -0.0628,7.288053 1.66132,7.288053 1.04887,0 1.70633,-0.200709 1.46102,-0.44602 -0.24531,-0.245311 0.48135,-1.095572 1.61479,-1.889469 1.1525,-0.807243 1.81588,-2.081742 1.5051,-2.891633 -0.31011,-0.808112 -0.11881,-1.178152 0.43282,-0.837228 0.5437,0.336025 0.98855,-0.104726 0.98855,-0.979447 0,-0.874721 0.67241,-1.848432 1.49425,-2.163802 0.82184,-0.31537 1.2384,-0.987396 0.92567,-1.493391 -0.31272,-0.505996 6.4e-4,-0.796343 0.69636,-0.645216 0.69571,0.151128 1.44435,-0.550063 1.66363,-1.558201 0.33831,-1.555348 0.094,-1.669903 -1.61306,-0.756321 -1.10646,0.592162 -2.94665,2.265188 -4.0893,3.717837 -1.28287,1.630902 -2.07755,2.082506 -2.07755,1.180635 0,-1.624791 3.3339,-4.958669 6.68426,-6.68421 2.66723,-1.373711 4.39206,-1.466787 2.31574,-0.124963 -0.83883,0.542091 -0.99029,0.976124 -0.34362,0.984687 1.77991,0.02357 0.38613,3.836715 -2.12415,5.811294 -2.73686,2.152818 -5.17699,7.353891 -6.03023,12.853292 -0.48306,3.113517 -0.11941,5.300289 1.4568,8.760285 1.59172,3.494052 1.85047,5.078296 1.06817,6.540039 -1.13646,2.123502 0.15929,3.671352 2.07979,2.48442 0.77472,-0.478805 0.70841,-0.930214 -0.22104,-1.504644 -0.73029,-0.451345 -1.04716,-1.101274 -0.70414,-1.444288 0.74249,-0.742494 4.81842,1.638288 4.81842,2.814479 0,0.450158 -0.41891,0.559572 -0.93091,0.243141 -0.51199,-0.316431 -1.28647,-0.0055 -1.72107,0.690983 -1.15697,1.854154 -1.43901,4.592042 -0.53086,5.153312 0.43408,0.268275 0.76529,-0.691116 0.73603,-2.13198 -0.0449,-2.212655 0.43909,-2.676289 3.11476,-2.983567 2.42453,-0.278436 3.30907,0.08078 3.76926,1.530735 0.4092,1.289272 1.58572,1.922536 3.68256,1.982154 1.69469,0.04818 3.8715,0.802771 4.83736,1.676861 1.60782,1.455059 1.87376,1.444257 3.14948,-0.127933 0.9209,-1.134899 0.96952,-1.462535 0.14339,-0.966211 -0.6875,0.413036 -1.25,0.282991 -1.25,-0.28899 0,-1.355526 4.53408,-2.484055 6.09767,-1.517704 0.7708,0.476379 0.95185,0.328775 0.49782,-0.405857 C 46.609834,53.519529 46.802804,53 47.431094,53 c 0.6283,0 0.95052,0.5625 0.71607,1.25 -0.23446,0.6875 -1.50946,1.093499 -2.83334,0.902219 -1.32387,-0.191279 -2.11913,-0.05337 -1.76724,0.306471 0.35189,0.359838 1.92689,0.807538 3.5,0.994888 1.57311,0.18735 2.7477,0.836938 2.6102,1.443529 C 49.519284,58.503698 49.883334,59 50.465794,59 c 0.58246,0 0.73793,0.519529 0.34549,1.154508 -0.44207,0.7153 -0.27431,0.883063 0.44099,0.440984 0.68366,-0.422525 1.09663,-3.034513 1.0126,-6.404509 -0.13188,-5.288965 -0.18486,-5.408418 -0.75,-1.690983 -0.76679,5.043879 -1.90442,3.416073 -1.56863,-2.244511 0.15669,-2.641268 -0.12721,-4.010273 -0.75161,-3.624375 -0.65164,0.402738 -0.87798,-2.403773 -0.64563,-8.005633 0.19678,-4.744174 0.0203,-8.625705 -0.39222,-8.625626 -0.4125,8e-5 -0.75,2.423707 -0.75,5.385838 0,2.962131 -0.65197,6.642366 -1.44883,8.1783 -0.79685,1.535933 -1.17732,3.2319 -0.84549,3.768815 0.33183,0.536915 0.19134,0.721584 -0.3122,0.410376 -0.50355,-0.311208 -1.78639,0.07095 -2.85077,0.849238 -1.5477,1.131712 -1.68487,1.664626 -0.68498,2.661325 0.9988,0.995608 1.63716,0.743456 3.17402,-1.253747 1.05808,-1.375 1.96541,-3.4 2.0163,-4.5 l 0.0925,-2 0.85943,2 c 1.18521,2.758144 1.20328,6.5 0.0314,6.5 -0.53274,0 -0.71529,-0.7875 -0.40567,-1.75 0.45896,-1.426738 0.37299,-1.481738 -0.4654,-0.297746 -0.5656,0.79874 -0.84122,1.755034 -0.61251,2.125099 0.22871,0.370064 -1.36075,0.956932 -3.53214,1.304151 -3.16262,0.505723 -3.8386,0.978158 -3.39812,2.374902 0.44016,1.395756 0.17521,1.323318 -1.3281,-0.363105 -1.22518,-1.374409 -2.82475,-2.005754 -4.60175,-1.816295 -1.49911,0.15983 -2.46433,-0.129413 -2.14673,-0.643302 C 31.265124,52.420167 32.523124,52 33.743284,52 c 2.99729,0 6.21565,-2.399103 9.73414,-7.256229 2.34989,-3.243932 2.92935,-5.07797 2.92935,-9.271686 0,-5.998911 -2.17619,-11.959635 -5.32693,-14.590818 -1.19519,-0.9981 -1.66567,-1.8297 -1.04552,-1.847998 0.62016,-0.0183 1.66556,0.614983 2.32311,1.40729 1.23731,1.490864 4.04934,1.06964 4.04934,-0.606565 0,-0.523615 -0.51953,-0.630942 -1.15451,-0.238502 -0.76817,0.474752 -0.88059,0.270314 -0.33596,-0.610922 0.61349,-0.992636 0.34667,-1.143368 -1.06501,-0.601656 -1.03596,0.397535 -1.56368,0.402912 -1.17272,0.01195 0.39097,-0.390964 0.15225,-1.388422 -0.53048,-2.216573 -1.06832,-1.295872 -0.96102,-1.356447 0.76987,-0.434633 1.10615,0.589103 2.84003,1.986955 3.85305,3.10634 1.83516,2.027825 1.85335,2.020247 4.98882,-2.078867 1.73081,-2.262763 3.82194,-4.296201 4.64694,-4.518753 1.33333,-0.35968 1.33333,-0.286771 0,0.656178 -1.23753,0.875195 -1.09597,1.063498 0.80901,1.076131 1.28757,0.0085 2.03562,-0.427061 1.69099,-0.984687 -0.78219,-1.265597 0.54162,-1.265597 2.5,0 1.23508,0.798169 1.24979,0.972079 0.0833,0.984687 -0.77917,0.0084 -1.07917,0.352813 -0.66667,0.765313 0.4125,0.4125 1.275,0.75 1.91667,0.75 0.64166,0 1.30046,1.148479 1.464,2.552176 0.40853,3.50668 -2.73954,6.251417 -6.17974,5.387982 -3.44496,-0.86463 -3.35883,-3.222025 0.1324,-3.623736 3.078,-0.354162 3.64074,-2.53659 1.07188,-4.156982 -1.32722,-0.837189 -2.09346,-0.54632 -3.66435,1.391013 -2.7776,3.425517 -3.43758,10.647132 -2.6066,28.52183 0.7709,16.582274 -0.10832,22.812202 -3.67497,26.039972 -1.6812,1.52147 -1.72696,1.89491 -0.41038,3.34971 3.98346,4.40167 7.24222,24.5406 5.81558,35.939955 l -0.7006,5.59808 -0.7915,-4.5 c -1.12093,-6.37297 -1.91688,-18.885355 -0.85878,-13.499995 l 0.78592,3.999995 0.12659,-5.499995 c 0.0696,-3.025 -0.29231,-6.16239 -0.8043,-6.97198 -1.79422,-2.83711 -2.34987,1.8368 -1.58353,13.320085 0.40932,6.13354 0.7117,12.50189 0.67195,14.15189 -0.0548,2.27399 0.15941,2.63699 0.8851,1.5 0.851,-1.33333 0.9681,-1.33333 1.0539,0 0.0531,0.825 0.71469,0.15 1.47021,-1.5 1.7813,-3.89022 1.81802,-1.26235 0.0629,4.5 -1.27863,4.19791 -1.39509,4.30669 -1.73482,1.62045 l -0.36417,-2.87956 -1.16576,3.13651 c -0.64117,1.72508 -0.83391,2.93141 -0.4283,2.68073 0.4056,-0.25067 2.00333,0.20097 3.55051,1.00366 2.10723,1.09324 3.15285,1.17743 4.16729,0.33551 1.52404,-1.26484 0.81277,-3.28512 -0.80465,-2.2855 -0.57348,0.35444 -1.41863,0.0362 -1.87811,-0.70729 -0.50246,-0.813 -0.35827,-1.65505 0.3618,-2.1128 1.82344,-1.15918 3.41142,-0.90809 1.69722,0.26835 -1.18616,0.81405 -0.97693,0.96777 1,0.73469 2.12568,-0.25062 2.46638,0.0796 2.27549,2.20525 -0.13093,1.45798 0.0409,1.87479 0.41223,1 0.3502,-0.825 1.35123,-2.0636 2.22451,-2.75245 1.3955,-1.1008 1.35599,-1.17104 -0.32628,-0.58006 -1.32305,0.46478 -1.69079,0.31115 -1.19098,-0.49755 0.76161,-1.23232 3.85002,-1.59161 4.87455,-0.56709 0.33157,0.33157 -0.60593,1.64703 -2.08334,2.92324 l -2.68618,2.32039 2.64304,1.01134 c 1.89397,0.72472 4.58629,0.60477 9.49963,-0.42324 3.77112,-0.78902 8.43175,-1.37844 10.35695,-1.30982 3.05509,0.10888 2.86432,0.23181 -1.49962,0.96633 -2.75,0.46287 -6.575,1.26067 -8.5,1.77289 l -3.5,0.9313 4.41666,0.10236 c 6.59886,0.15293 4.05592,1.39509 -3.67169,1.79351 -4.73601,0.24418 -7.35917,-0.0825 -8.80711,-1.09682 z M 53.906784,129 c -0.33992,-0.55 -1.15398,-0.99311 -1.80902,-0.98469 -0.71562,0.009 -0.59228,0.40223 0.30902,0.98469 1.92112,1.24153 2.2673,1.24153 1.5,0 z m -3.78375,-12.75 c -0.22912,-1.5125 -0.41659,-0.275 -0.41659,2.75 0,3.025 0.18747,4.2625 0.41659,2.75 0.22913,-1.5125 0.22913,-3.9875 0,-5.5 z m 0.96686,-31.437495 c -0.31923,-0.79774 -0.55618,-0.56078 -0.60417,0.60416 -0.0434,1.05417 0.19293,1.64479 0.52522,1.3125 0.33229,-0.33229 0.36782,-1.19479 0.079,-1.91666 z m -1,-4 c -0.31923,-0.79774 -0.55618,-0.56078 -0.60417,0.60416 -0.0434,1.05417 0.19293,1.64479 0.52522,1.3125 0.33229,-0.33229 0.36782,-1.19479 0.079,-1.91666 z m -7.68311,-1.19593 c 0,-0.21088 -1.11139,-0.59587 -2.46974,-0.85554 -1.35836,-0.25967 -2.2318,-0.0871 -1.94098,0.38342 0.51208,0.82857 4.41072,1.24587 4.41072,0.47212 z m 6.12408,-2.88324 c -0.98761,-0.98027 -1.10248,-0.8654 -0.55979,0.55979 0.37553,0.98622 0.93469,1.54122 1.24258,1.23334 0.30789,-0.30789 6.3e-4,-1.1148 -0.68279,-1.79313 z m -5.39492,-4.3375 c -0.33229,-0.33229 -1.19479,-0.36782 -1.91666,-0.079 -0.79774,0.31922 -0.56078,0.55618 0.60416,0.60417 1.05417,0.0434 1.64479,-0.19293 1.3125,-0.52522 z m 5.83827,-2.50494 c 0.37335,-0.60409 -0.50159,-0.32492 -1.94431,0.62039 -1.44272,0.9453 -2.62312,1.90781 -2.62312,2.13891 0,0.72338 3.85397,-1.6049 4.56743,-2.7593 z m 2.11568,-7.078395 c -0.31923,-0.797733 -0.55618,-0.560776 -0.60417,0.604167 -0.0434,1.054166 0.19293,1.644791 0.52522,1.3125 0.33229,-0.332292 0.36782,-1.194792 0.079,-1.916667 z m -25.55903,-6.079167 c -0.98761,-0.980267 -1.10248,-0.865403 -0.55979,0.559795 0.37553,0.986221 0.93469,1.541221 1.24258,1.233333 0.30789,-0.307887 6.3e-4,-1.114794 -0.68279,-1.793128 z m 14.36884,-4.721879 c 0.35034,-0.56686 -0.0511,-0.734507 -0.94099,-0.393011 C 37.226304,52.283234 36.909334,53 38.347764,53 c 0.51754,0 1.21591,-0.444846 1.55194,-0.988546 z M 51.031254,24.46378 c -0.25036,-0.652439 -1.32325,-1.413252 -2.38419,-1.690694 -1.89283,-0.494984 -1.89441,-0.432873 -0.0846,3.31293 1.18112,2.444635 1.91898,6.441862 2.05189,11.115678 0.19252,6.769845 0.23161,6.615854 0.53984,-2.126677 0.18277,-5.183741 0.12746,-9.958798 -0.12291,-10.611237 z m -35.62447,9.977203 c 0,-1.407459 -0.40776,-2.307011 -0.90612,-1.999004 -0.49837,0.308007 -0.67089,1.459565 -0.38337,2.559017 0.71954,2.75155 1.28949,2.504029 1.28949,-0.560013 z m 31.45729,-8.371885 c 0.31643,-0.511996 0.11799,-1.213553 -0.44098,-1.559017 -0.55897,-0.345463 -1.01631,0.07344 -1.01631,0.930902 0,1.756526 0.60005,2.015159 1.45729,0.628115 z m 16.42671,-8.441543 c -0.11018,-2.020781 -0.14068,-2.027182 -0.60761,-0.127555 -0.27039,1.1 -1.00569,2.675 -1.634,3.5 -0.99355,1.304567 -0.91439,1.321186 0.60761,0.127555 0.9625,-0.754844 1.6978,-2.329844 1.634,-3.5 z m -7.98138,-3.058267 c -0.26308,-0.263082 -1.07409,0.513704 -1.80223,1.72619 -1.26492,2.106309 -1.24361,2.127619 0.47833,0.478332 0.99123,-0.949405 1.58698,-1.94144 1.3239,-2.204522 z M 169.66961,124.83901 c -0.12125,-1.60963 0.12265,-1.85353 0.98809,-0.98809 0.75682,0.75682 0.81178,1.48638 0.16099,2.13717 -0.65079,0.65079 -1.04305,0.25853 -1.14908,-1.14908 z m -0.16238,-7.38901 0.10045,-4.95 0.92102,3.92853 c 0.60201,2.56785 0.56722,4.28233 -0.10045,4.95 -0.69529,0.69529 -0.98939,-0.55918 -0.92102,-3.92853 z M 66.656784,113.49511 c -2.3375,-2.36966 -4.25,-4.56363 -4.25,-4.87548 0,-0.88249 8.95304,-9.619625 9.85733,-9.619625 0.44259,0 1.38028,1.075465 2.08376,2.389925 0.70348,1.31446 2.35452,2.9655 3.66898,3.66898 1.31446,0.70348 2.38993,1.91353 2.38993,2.68902 0,1.22959 -8.29635,10.41501 -9.17106,10.15386 -0.18092,-0.054 -2.24144,-2.03702 -4.57894,-4.40668 z m 7.99535,-2.24511 2.61954,-2.75 -2.94288,-2.9271 -2.94288,-2.9271 -3.00313,2.87719 -3.00314,2.87719 2.76357,2.69204 c 1.51996,1.48062 3.01688,2.74058 3.32648,2.79991 0.3096,0.0593 1.7417,-1.12963 3.18244,-2.64213 z m -6.24535,-4.19098 c 0,-0.51754 0.44484,-1.21592 0.98854,-1.55194 0.56686,-0.35034 0.73451,0.0511 0.39301,0.94098 -0.66479,1.73242 -1.38155,2.04939 -1.38155,0.61096 z m 36.249996,6.0141 c -2.3375,-2.11467 -4.25,-4.10395 -4.25,-4.42061 0,-0.66638 8.60958,-9.652505 9.24804,-9.652505 0.94511,0 8.75196,7.992365 8.75196,8.959935 0,1.20738 -7.63531,9.06 -8.75,8.99905 -0.4125,-0.0226 -2.6625,-1.7712 -5,-3.88587 z m 7.83981,-1.81987 c 3.17309,-2.99489 3.81086,-4.81285 1.35825,-3.87169 -0.88992,0.34149 -1.29132,0.17385 -0.94098,-0.39301 0.33602,-0.5437 0.16472,-0.98855 -0.38068,-0.98855 -0.54539,0 -1.27831,-0.90326 -1.6287,-2.00724 -0.60139,-1.89482 -0.80547,-1.83884 -3.64384,0.99953 l -3.00676,3.00676 2.32645,2.94515 c 1.27955,1.61983 2.47936,2.97004 2.66626,3.00047 0.1869,0.0304 1.6494,-1.18071 3.25,-2.69142 z M 14.809264,100 c 0,-8.524995 0.15337,-12.012495 0.34082,-7.749995 0.18746,4.2625 0.18746,11.237495 0,15.499995 -0.18745,4.2625 -0.34082,0.775 -0.34082,-7.75 z m 154.658336,3 c 0,-2.8554 0.18772,-3.177705 1.01928,-1.75 0.69237,1.18874 0.69237,2.31126 0,3.5 -0.83156,1.4277 -1.01928,1.1054 -1.01928,-1.75 z M 87.465684,95.610075 c -0.70347,-1.31446 -2.35451,-2.9655 -3.66897,-3.66898 -3.21335,-1.71973 -3.01958,-2.9071 1.11007,-6.80229 1.925,-1.81571 3.5,-3.71473 3.5,-4.22005 0,-2.22043 3.42043,-0.56293 7.49958,3.63421 l 4.424976,4.55297 -4.641176,4.44703 c -2.55265,2.44587 -5.15964,4.44704 -5.7933,4.44704 -0.63367,0 -1.7277,-1.07547 -2.43118,-2.38993 z m 6.33291,-4.2157 2.89182,-2.54242 -3.03787,-2.77467 -3.03788,-2.77467 -2.73359,2.89624 -2.73358,2.89624 2.30396,2.45245 c 2.80903,2.99008 2.77088,2.991 6.34714,-0.15317 z m 75.608186,-15.78672 c 0,-4.79913 0.37997,-8.490853 0.84438,-8.203831 0.8315,0.513891 0.46479,15.620341 -0.40017,16.485301 -0.24432,0.24432 -0.44421,-3.48235 -0.44421,-8.28147 z M 66.656784,74.565575 c -2.3375,-2.42077 -4.25,-4.66333 -4.25,-4.98348 0,-1.25198 8.08406,-8.582095 9.46481,-8.582095 0.80565,0 1.94399,0.895342 2.52965,1.98965 0.58565,1.094307 2.40149,2.680863 4.03518,3.52568 3.58154,1.852085 3.83583,4.205115 0.5879,5.439985 -1.31036,0.49819 -3.366,2.28705 -4.5681,3.97525 -1.2021,1.68819 -2.49249,3.062 -2.86754,3.05292 -0.37505,-0.009 -2.5944,-1.99714 -4.9319,-4.41791 z m 8.04864,-2.35541 2.67283,-2.78983 -2.86424,-2.513322 -2.86423,-2.513325 -3.00892,2.688467 -3.00892,2.68847 2.61469,2.61469 c 1.43808,1.43808 2.87823,2.61469 3.20033,2.61469 0.3221,0 1.78841,-1.25543 3.25846,-2.78984 z m 29.951356,2.28494 c -2.3375,-2.36966 -4.25,-4.56362 -4.25,-4.87547 0,-0.62011 8.81973,-9.619635 9.42745,-9.619635 0.20615,0 2.43307,2.087745 4.94871,4.639433 l 4.5739,4.639432 -5.09625,4.86057 c -2.80294,2.67331 -5.15421,4.81637 -5.22503,4.76236 -0.0708,-0.054 -2.04128,-2.03703 -4.37878,-4.40669 z m 7.59281,-2.17009 3.04847,-2.67498 -2.69564,-3.159125 -2.69564,-3.15912 -3.17693,3.04437 -3.17692,3.044365 2.67692,2.71183 c 1.47231,1.49151 2.74316,2.74689 2.8241,2.78974 0.081,0.0429 1.51899,-1.12584 3.19564,-2.59708 z M 85.156784,54.909848 c -2.0625,-2.084913 -3.75,-4.078074 -3.75,-4.429247 0,-0.675869 8.5698,-9.480601 9.22764,-9.480601 0.94737,0 9.772356,8.852949 9.772356,9.803322 0,0.584046 -0.880236,1.341279 -1.956076,1.682738 -1.07585,0.34146 -3.0718,1.946784 -4.43544,3.567388 -1.36365,1.620604 -3.07092,2.879187 -3.79392,2.796851 -0.72301,-0.08234 -3.00206,-1.855538 -5.06456,-3.940451 z m 10.80421,-4.146422 c 0.47338,0.405116 -0.47016,-0.876273 -2.09676,-2.847531 l -2.95745,-3.584105 -3.18536,3.052616 -3.18536,3.052616 3.09329,2.761696 3.0933,2.761695 2.18882,-2.96678 c 1.20386,-1.63173 2.57614,-2.635322 3.04952,-2.230207 z m 50.730026,-7.784501 c -0.4031,-1.541457 -0.84115,-1.761618 -1.84591,-0.927743 -1.86616,1.548778 -6.53336,0.773421 -7.83235,-1.301182 -1.5105,-2.412394 0.33761,-5.159446 3.74488,-5.566422 1.88529,-0.225185 2.64914,-0.897979 2.64914,-2.333334 0,-1.185905 -0.51502,-1.832241 -1.25,-1.568705 -2.00074,0.717396 -4.75,-1.181928 -4.75,-3.281539 0,-4.369542 9.22077,-5.087766 10.34062,-0.805451 0.53226,2.035354 0.61175,2.023314 3.67842,-0.55712 3.78885,-3.188108 7.493,-3.417714 9.02278,-0.559288 C 161.97889,28.937514 160.95163,31 157.99718,31 c -1.3598,0 -2.74828,0.446436 -3.08551,0.99208 -1.08512,1.755774 0.91036,3.50792 3.99511,3.50792 2.51081,0 3.05054,0.437458 3.30993,2.682742 0.45434,3.932717 -2.94047,5.370245 -7.92851,3.35732 -1.1143,-0.449677 -1.78613,-0.01245 -2.15638,1.40338 -0.71783,2.74501 -4.72541,2.771145 -5.4408,0.03548 z m -2.97472,-2.431306 c 0.79881,-0.798809 1.67536,-1.229402 1.94789,-0.956872 0.27253,0.27253 0.74936,-0.165998 1.05961,-0.974506 0.31025,-0.808508 -0.0463,-1.976608 -0.79236,-2.595777 -1.05416,-0.874875 -1.50165,-0.668308 -2.00795,0.926886 -0.35832,1.128958 -1.40866,2.088176 -2.3341,2.131597 -1.20892,0.05672 -1.29886,0.231561 -0.31946,0.621051 1.15087,0.457682 1.15087,0.676597 0,1.40574 -0.88707,0.562012 -0.95153,0.868984 -0.18458,0.878949 0.64822,0.0084 1.83214,-0.638258 2.63095,-1.437068 z m 15.07204,-1.099557 c 0.34149,-0.889925 0.17385,-1.291322 -0.39301,-0.940983 -0.5437,0.336025 -0.98855,1.034397 -0.98855,1.551938 0,1.438432 0.71677,1.121462 1.38156,-0.610955 z M 141.90678,37 c -0.33992,-0.55 -1.15398,-0.993109 -1.80902,-0.984687 -0.71561,0.0092 -0.59227,0.402227 0.30902,0.984687 1.92112,1.241525 2.2673,1.241525 1.5,0 z m 4,-4 c 0.33992,-0.55 0.14148,-1 -0.44098,-1 -0.58246,0 -1.05902,0.45 -1.05902,1 0,0.55 0.19844,1 0.44098,1 0.24254,0 0.7191,-0.45 1.05902,-1 z m 5.27666,-1.427907 c -0.11052,-1.335348 -0.51323,-2.2349 -0.89492,-1.999004 C 149.61337,29.990354 150.26882,34 151.01221,34 c 0.20469,0 0.28174,-1.092558 0.17123,-2.427907 z M 140.90678,29 c -0.33992,-0.55 -0.0515,-1 0.64098,-1 0.92447,0 0.96331,-0.295711 0.14615,-1.112868 -0.61207,-0.612077 -1.58242,-0.822666 -2.15632,-0.467975 C 138.33365,27.163229 139.15375,30 140.57279,30 c 0.52361,0 0.67391,-0.45 0.33399,-1 z m 17.63685,0.300002 c -1.04316,-0.414846 -1.07678,-0.719091 -0.14324,-1.296053 0.87067,-0.538102 0.90306,-0.949776 0.11315,-1.437966 -0.60872,-0.376209 -1.10676,-0.152359 -1.10676,0.497445 0,0.903674 -0.33175,0.906133 -1.41097,0.01046 -1.08042,-0.896668 -1.58517,-0.889156 -2.15451,0.03206 -0.44251,0.715991 -0.32199,0.942539 0.29766,0.559569 0.57267,-0.353924 1.59729,0.02655 2.27696,0.845491 0.67966,0.818945 1.74315,1.453464 2.3633,1.410043 0.62016,-0.04342 0.51414,-0.322894 -0.23559,-0.621051 z M 21.906784,40.624434 c -1.91246,-1.436443 -1.92269,-1.58062 -0.23384,-3.293767 1.47265,-1.493827 2.09586,-1.585672 3.75,-0.552644 2.30366,1.438656 2.46645,1.012226 0.73384,-1.922245 -1,-1.693668 -1,-2.207621 0,-2.569765 2.29707,-0.83187 1.28428,-2.164887 -1.5,-1.974277 -2.31687,0.158612 -2.75,-0.20549 -2.75,-2.311736 0,-2.175448 0.49588,-2.540832 3.81978,-2.814526 2.10089,-0.172989 4.46339,0.219611 5.25,0.872445 0.92469,0.767417 1.87205,0.85276 2.68022,0.241445 1.72207,-1.302611 5.68948,-1.40212 7.93737,-0.199083 1.29171,0.691302 1.81973,1.987794 1.71045,4.19986 -0.0869,1.759923 0.14218,3.905433 0.50917,4.767801 0.39551,0.929376 -0.22119,2.697418 -1.51424,4.341268 -1.93255,2.456842 -2.65002,2.707643 -6.28712,2.197761 -5.31028,-0.744442 -5.55881,-0.746089 -9.10563,-0.06035 -1.9098,0.369237 -3.7268,0.03412 -5,-0.922183 z m 16.02494,-4.181044 c -1.6627,-1.256886 -1.78131,-1.803233 -0.75,-3.454628 1.69559,-2.715066 1.59557,-2.890654 -1.52494,-2.677026 -3.32254,0.22746 -4.41794,1.505963 -3.21541,3.752899 0.49227,0.91982 0.64136,1.926078 0.33131,2.236129 -0.31005,0.310051 0.32999,0.330015 1.42232,0.04436 1.09233,-0.285651 2.2884,-0.03016 2.65793,0.567753 0.36954,0.597915 1.20782,1.072806 1.86286,1.055315 0.65504,-0.01749 0.30221,-0.703655 -0.78407,-1.524807 z m 28.22506,-0.533542 c -2.0625,-2.084913 -3.74871,-4.380048 -3.74713,-5.1003 0.002,-0.720251 1.3542,-2.209548 3.00582,-3.309548 1.65162,-1.1 3.25565,-2.7875 3.56451,-3.75 0.30887,-0.9625 1.133,-1.75 1.83142,-1.75 1.71994,0 9.59538,7.587316 9.59538,9.244337 0,0.728446 -1.32262,2.105737 -2.93915,3.060645 -1.61653,0.954908 -3.22186,2.626932 -3.56739,3.715607 -0.91723,2.889944 -3.4904,2.188541 -7.74346,-2.110741 z m 8.62476,-2.779125 c 2.3272,-2.42908 2.50135,-2.964283 1.13515,-3.488546 -1.05754,-0.405816 -1.37029,-0.225275 -0.90734,0.523786 0.43868,0.709798 0.26266,0.868783 -0.46438,0.419447 -0.64395,-0.397984 -0.94343,-1.091524 -0.66552,-1.541201 0.27792,-0.449678 -0.11937,-1.336027 -0.88285,-1.969666 -1.08323,-0.898998 -1.99161,-0.633009 -4.13525,1.210875 l -2.74709,2.362945 2.32659,2.675819 C 69.720484,34.795882 71.052114,36 71.400024,36 c 0.34792,0 1.8696,-1.291175 3.38152,-2.869277 z m 29.875236,2.434851 c -2.3375,-2.420766 -4.25,-4.582828 -4.25,-4.804582 0,-0.221755 2.01241,-2.503462 4.47203,-5.07046 l 4.47203,-4.66727 5.19181,5.110482 5.19181,5.110482 -2.41384,1.855651 c -1.32761,1.020608 -2.6753,1.865657 -2.99486,1.877887 -0.31956,0.01223 -1.1831,1.147236 -1.91898,2.522236 -0.73588,1.375 -1.82442,2.492568 -2.41898,2.483483 -0.59456,-0.0091 -2.99352,-1.997143 -5.33102,-4.417909 z m 7.80296,-2.277549 c 2.68847,-2.537485 2.76786,-2.828537 1.23382,-4.523634 -1.26737,-1.400429 -1.82301,-1.522556 -2.44784,-0.538025 -0.54431,0.857649 -0.81332,0.506587 -0.82363,-1.074858 l -0.0153,-2.348492 -3.25,2.81358 -3.25,2.813579 2.47268,2.784913 C 107.73944,34.746789 109.01736,36 109.21927,36 c 0.20192,0 1.66013,-1.220389 3.24047,-2.711975 z M 13.045154,24.5 c -0.38462,-1.002298 0.0421,-1.5 1.28602,-1.5 1.0239,0 2.12065,0.675 2.43723,1.5 0.38462,1.002298 -0.0421,1.5 -1.28602,1.5 -1.02389,0 -2.12065,-0.675 -2.43723,-1.5 z M 169.57488,19.65121 c -0.12768,-2.923453 -0.94947,-4.583583 -3.4181,-6.905039 -1.7875,-1.680936 -2.34497,-2.578162 -1.23881,-1.993834 4.03946,2.133854 5.6408,4.862345 5.22313,8.899569 L 169.74299,23.5 Z M 138.04515,20.5 c 0.31659,-0.825 1.03256,-1.5 1.59106,-1.5 0.58531,0 0.48812,0.635407 -0.22943,1.5 -0.68469,0.825 -1.40067,1.5 -1.59106,1.5 -0.19039,0 -0.0872,-0.675 0.22943,-1.5 z M 31.406784,18 c -3.025,-0.370704 -4.375,-0.800672 -3,-0.955486 1.375,-0.154814 3.02726,-0.216527 3.67169,-0.137141 0.64444,0.07938 1.31944,-0.429798 1.5,-1.131518 0.22465,-0.873021 1.08873,-0.565448 2.73671,0.974145 1.32463,1.2375 1.99963,2.176652 1.5,2.087003 -0.49962,-0.08965 -3.3834,-0.466299 -6.4084,-0.837003 z M 142.04295,17.505744 c 0.31537,-0.821841 0.98359,-1.240747 1.48493,-0.930902 C 144.57646,17.222903 143.7347,19 142.37915,19 c -0.50028,0 -0.65157,-0.672415 -0.3362,-1.494256 z M 15.406784,17.622445 c 0,-0.207656 0.7875,-0.995156 1.75,-1.75 1.58605,-1.243871 1.62142,-1.208501 0.37755,0.377555 -1.30637,1.665748 -2.12755,2.195479 -2.12755,1.372445 z M 147.65678,15.337719 c -0.6875,-0.277412 -1.25,-0.932718 -1.25,-1.456236 0,-0.582417 0.73139,-0.560421 1.88445,0.05667 1.37049,0.733465 1.87299,0.674877 1.84246,-0.214816 -0.11432,-3.331324 0.40823,-4.7233364 1.77309,-4.7233364 0.825,0 1.5,0.701557 1.5,1.5590164 0,0.926142 -0.46989,1.268608 -1.15752,0.843628 -0.78805,-0.487042 -0.98292,-0.04771 -0.61051,1.3764 0.34376,1.314558 3.4e-4,2.301568 -0.92427,2.656372 -0.8092,0.310521 -1.54697,0.529057 -1.63949,0.485636 -0.0925,-0.04342 -0.73071,-0.305921 -1.41821,-0.583334 z M 28.070674,13.168213 c 0.18486,-0.732484 0.33611,-1.744984 0.33611,-2.25 0,-0.505017 1.9125,-0.882687 4.25,-0.839266 2.3375,0.04342 3.69875,0.302171 3.025,0.575 -0.67375,0.272829 -1.3809,0.349803 -1.57143,0.171053 -0.19054,-0.17875 -1.13807,0.466636 -2.10562,1.434191 -0.96756,0.967555 -2.13448,1.527252 -2.59316,1.24377 -0.45869,-0.283482 -1.02365,-0.175118 -1.25549,0.240808 -0.23183,0.415927 -0.27027,0.156927 -0.0854,-0.575556 z m 8.72245,0.635452 c 0.99768,-0.558326 2.18812,-0.628744 2.65901,-0.15729 0.47065,0.471213 -0.3386,0.924088 -1.8064,1.010914 -2.28715,0.135292 -2.40638,0.01591 -0.85261,-0.853624 z m 63.882686,0.503344 c 0.97297,-0.253543 2.32297,-0.236869 3,0.03705 0.67703,0.273923 -0.11903,0.481368 -1.76903,0.460988 -1.65,-0.02038 -2.203936,-0.244498 -1.23097,-0.498042 z m 28.73097,-0.366026 c 0,-0.582459 0.45,-0.780902 1,-0.440983 0.55,0.339919 1,0.816476 1,1.059017 0,0.242541 -0.45,0.440983 -1,0.440983 -0.55,0 -1,-0.476558 -1,-1.059017 z m -0.1875,-3.624097 c 0.72187,-0.288871 1.58437,-0.253344 1.91667,0.07895 0.33229,0.332292 -0.25834,0.568641 -1.3125,0.52522 -1.16495,-0.04798 -1.4019,-0.284941 -0.60417,-0.604167 z m 13,0 c 0.72187,-0.288871 1.58437,-0.253344 1.91667,0.07895 0.33229,0.332292 -0.25834,0.568641 -1.3125,0.52522 -1.16495,-0.04798 -1.4019,-0.284941 -0.60417,-0.604167 z m 3.6875,-0.3168864 c 0.33992,-0.549999 1.37898,-0.993109 2.30902,-0.984687 1.45727,0.0132 1.48367,0.149289 0.19098,0.984687 -1.95837,1.2655974 -3.28218,1.2655974 -2.5,0 z"
     style="fill:#ffffff" />
</svg>
